{"glyphs":{"0":{"ha":636,"x_min":0,"x_max":0,"o":"m 604 697 b 562 838 591 775 587 789 b 466 952 542 878 508 918 b 447 977 446 967 446 968 b 437 990 448 983 445 988 b 424 996 431 992 425 994 b 418 999 423 998 421 999 b 412 1003 416 999 413 1001 b 408 1007 412 1005 410 1007 b 384 1027 406 1007 395 1016 b 360 1047 373 1038 362 1047 b 342 1033 358 1047 350 1041 b 290 1006 325 1015 308 1006 b 273 1001 280 1005 275 1004 b 267 997 271 999 269 997 b 262 993 265 997 263 995 b 255 987 262 991 258 988 b 251 980 251 985 250 983 b 246 974 252 978 250 976 b 239 968 242 973 239 970 b 235 962 239 966 237 963 b 231 957 233 961 231 959 b 227 952 231 955 230 953 b 225 947 225 951 224 949 b 222 942 226 945 224 943 b 220 936 220 941 219 939 b 217 930 221 933 220 931 b 215 926 215 929 214 927 b 209 913 216 925 213 919 b 201 899 204 907 201 901 b 168 834 201 894 186 866 b 67 608 131 770 91 680 b 38 215 16 457 8 348 b 62 129 43 191 47 180 b 205 -10 84 53 137 2 b 309 6 239 -17 279 -10 b 394 81 345 26 362 41 b 526 272 436 133 498 223 b 604 697 611 424 631 534 z m 414 438 b 268 206 386 366 324 267 b 244 183 259 196 248 186 l 236 178 l 229 194 b 201 436 198 261 187 359 b 331 771 220 544 266 664 b 372 800 360 819 355 816 b 437 637 408 764 427 719 b 414 438 446 566 439 502 z "},"1":{"ha":549,"x_min":0,"x_max":0,"o":"m 30 15 b 102 -23 68 -6 101 -23 b 177 114 104 -23 105 -20 b 358 459 253 257 279 306 b 432 600 388 517 422 581 b 464 659 442 620 457 646 b 507 729 475 682 501 723 b 518 745 514 737 518 743 b 521 748 518 747 520 748 b 524 754 522 748 524 751 b 527 761 524 758 525 761 b 531 767 530 761 531 763 b 535 773 531 771 533 773 b 537 781 538 773 539 775 b 540 790 536 787 537 789 b 543 800 543 791 544 793 b 546 811 541 807 542 809 b 547 821 551 814 551 814 b 548 834 543 828 543 829 b 547 846 552 839 552 839 b 546 858 542 853 542 854 b 544 867 550 862 550 862 b 540 878 540 870 539 873 b 538 885 541 882 540 884 b 534 893 535 886 534 890 b 531 899 534 897 532 899 b 527 904 530 899 528 901 b 495 932 524 911 501 932 b 489 938 492 932 490 935 b 481 942 488 942 486 943 b 469 947 476 941 473 942 b 458 950 464 953 463 953 b 447 952 454 947 452 947 b 436 954 441 958 440 958 b 425 954 431 950 431 950 b 414 955 420 957 418 958 b 403 955 409 953 407 953 b 396 953 399 957 397 957 b 388 951 395 951 393 950 b 381 950 385 952 382 951 b 374 947 380 949 377 947 b 355 941 371 947 363 945 b 223 905 318 924 230 900 b 208 900 221 907 217 905 l 195 891 l 184 899 b 168 903 172 907 172 907 b 165 896 166 900 165 897 b 156 896 165 895 161 895 b 140 880 148 897 148 897 b 118 855 133 864 132 862 b 90 831 101 847 88 835 b 88 825 91 829 90 826 b 90 811 83 821 83 821 b 96 799 93 806 96 800 b 88 785 96 798 93 792 l 80 772 l 86 769 b 88 758 90 766 91 764 b 88 748 87 753 87 749 b 116 735 89 747 102 741 l 143 724 l 151 706 b 183 689 163 683 169 680 l 193 695 l 205 687 b 219 684 215 681 217 680 b 230 686 222 687 225 687 b 246 705 237 684 237 685 b 258 728 250 716 256 726 b 314 744 262 730 314 745 b 84 303 314 743 120 369 b 7 158 69 273 34 208 b -41 60 -20 106 -41 65 b 29 15 -41 53 -40 52 z "},"2":{"ha":863,"x_min":0,"x_max":0,"o":"m 91 39 b 106 43 99 36 100 37 b 114 54 110 46 113 51 b 130 57 116 58 118 58 b 144 61 143 55 143 55 b 151 68 145 65 147 67 b 167 73 155 69 162 71 b 509 121 179 79 250 89 b 753 155 714 146 753 152 b 734 310 753 158 735 303 b 723 318 733 317 732 318 b 540 297 718 318 636 308 b 348 273 444 285 357 274 l 331 271 l 336 276 b 390 323 340 279 364 301 b 596 510 501 419 540 454 b 681 599 629 543 667 583 b 755 691 713 635 751 682 b 770 717 757 695 764 707 b 781 737 776 727 781 736 b 784 746 781 738 782 742 b 800 814 792 761 799 790 b 748 945 803 864 785 908 b 555 1013 706 986 660 1003 b 256 908 427 1026 307 984 b 221 760 224 861 212 812 b 239 708 224 741 227 731 b 326 619 259 668 285 642 b 353 602 336 614 349 606 l 362 596 l 368 602 b 474 716 383 615 474 713 b 440 753 475 718 459 734 b 404 794 413 779 404 789 b 474 835 404 808 439 829 b 553 835 500 840 523 840 b 613 818 574 832 609 822 b 593 771 615 816 603 787 b 428 585 568 730 496 649 b 93 294 369 530 146 336 b 46 266 73 278 53 266 b 36 259 44 266 40 263 b 23 255 29 253 27 252 b 12 246 18 257 17 257 b 3 235 9 238 6 235 b -4 230 0 235 -3 232 b -9 225 -5 227 -7 225 b -14 220 -11 225 -13 222 b -24 213 -15 217 -19 214 b -31 198 -34 211 -34 212 b -35 178 -29 189 -29 187 b -47 144 -44 165 -46 161 b -43 127 -48 133 -47 130 b -40 119 -39 125 -38 123 b -31 100 -46 109 -44 106 l -18 95 l -18 83 b -12 70 -18 72 -17 70 b -4 62 -8 70 -6 68 b 14 52 -2 54 -1 54 b 44 53 22 51 35 52 b 65 49 58 55 59 55 b 77 42 69 46 74 43 b 91 39 80 42 86 41 z "},"3":{"ha":1076,"x_min":0,"x_max":0,"o":"m 99 75 b 104 73 100 74 102 73 b 362 138 109 73 294 120 b 489 174 391 146 448 162 b 616 210 530 186 587 202 b 845 300 688 231 787 269 b 1007 461 927 343 987 403 b 1014 550 1015 485 1018 529 b 1011 565 1013 554 1012 561 b 960 646 1006 586 981 625 b 870 689 939 666 902 683 b 853 693 865 690 858 691 b 661 696 827 700 700 702 l 650 694 l 659 704 b 712 764 663 710 687 737 b 790 861 761 820 790 856 b 792 864 790 863 791 864 b 810 904 794 864 811 899 b 813 913 810 905 812 908 b 817 972 818 929 819 948 b 752 1077 813 1008 790 1047 b 716 1096 748 1081 721 1095 b 713 1097 715 1096 714 1097 b 709 1098 712 1097 710 1098 b 706 1099 708 1099 706 1099 b 701 1101 706 1100 704 1100 b 683 1106 699 1101 691 1104 b 525 1105 658 1113 567 1113 b 394 1073 488 1098 424 1082 b 300 1028 356 1060 303 1035 b 296 1026 300 1027 298 1026 b 291 1022 294 1026 292 1024 b 288 1019 290 1020 289 1018 b 274 1006 286 1021 274 1010 b 271 1003 274 1005 273 1003 b 267 1000 268 1003 267 1002 b 263 996 267 998 265 996 b 259 991 261 996 259 994 b 255 984 259 988 258 985 b 252 978 253 983 252 981 b 248 972 252 975 250 972 b 244 964 246 971 244 967 b 240 957 244 961 242 958 b 238 951 237 956 237 954 b 236 945 238 949 238 946 b 233 932 235 944 233 939 b 230 918 233 926 232 920 b 231 911 229 916 230 913 b 231 906 233 909 233 907 b 230 900 230 905 229 902 b 233 888 231 897 232 892 b 234 880 233 884 234 881 b 235 878 234 880 235 879 b 244 853 237 871 242 855 b 247 846 246 852 247 849 b 250 842 247 844 248 842 b 254 837 252 842 254 839 b 258 832 254 834 256 832 b 262 826 260 832 262 829 b 266 821 262 824 263 821 b 272 815 268 821 271 819 b 278 810 273 811 275 809 b 282 808 281 811 282 810 b 288 801 282 805 285 803 b 295 796 292 800 295 798 b 298 794 295 795 296 794 b 305 790 300 794 303 792 b 311 788 306 788 309 787 b 317 785 313 788 315 787 b 323 782 319 783 321 782 b 328 782 324 783 327 783 b 349 775 330 780 339 777 b 374 767 359 772 370 769 b 383 764 378 765 382 763 b 466 882 385 764 432 831 l 477 898 l 466 909 l 487 916 b 590 932 524 928 558 933 l 619 931 l 600 905 b 435 720 563 853 511 794 b 379 667 408 693 382 669 b 370 661 375 665 371 662 b 366 661 369 660 367 660 b 356 652 364 662 360 658 b 337 643 349 642 349 641 b 324 638 326 644 325 644 b 307 610 318 612 318 612 b 294 591 295 608 291 602 b 291 576 297 584 296 582 b 276 539 281 563 277 554 b 283 519 275 525 275 524 l 292 513 l 289 501 b 292 483 286 490 286 489 b 302 478 295 480 300 478 b 315 475 304 478 310 476 b 328 460 324 473 325 471 b 335 447 330 450 332 447 b 341 445 338 447 341 446 b 370 446 344 441 355 442 b 390 444 384 450 384 450 b 404 437 394 441 400 437 b 415 443 410 436 412 437 b 435 448 420 450 423 451 b 455 461 448 444 453 448 b 479 480 457 474 459 475 b 489 485 484 482 489 484 b 650 520 489 490 586 511 b 817 515 708 528 786 525 l 826 512 l 818 501 b 690 419 801 478 754 448 b 183 268 615 386 435 332 b 61 233 70 239 64 237 b 99 75 60 231 96 80 z "},"4":{"ha":767,"x_min":0,"x_max":0,"o":"m 442 -61 b 522 -79 484 -71 520 -79 b 542 -22 527 -79 529 -71 b 578 129 550 10 566 77 b 648 409 605 243 628 336 b 677 492 671 496 669 491 b 687 518 691 495 691 496 l 683 537 l 702 603 b 750 763 712 640 734 712 l 780 857 l 799 859 b 820 868 819 861 819 861 b 822 882 821 873 822 879 b 825 888 822 885 823 888 b 827 893 826 888 827 890 b 828 901 826 895 827 899 b 823 920 829 903 827 912 b 817 940 820 929 817 938 b 826 960 817 942 821 951 b 819 985 832 972 830 980 b 810 991 815 988 810 990 b 807 1009 809 991 808 999 b 792 1040 805 1026 799 1040 b 789 1044 791 1040 789 1042 b 782 1046 789 1047 788 1048 b 772 1050 777 1045 775 1046 b 746 1046 768 1055 767 1055 l 725 1037 l 710 1046 b 691 1055 701 1051 693 1055 b 663 1027 686 1055 668 1037 b 648 1016 659 1019 656 1017 b 629 1003 637 1015 627 1008 b 624 997 630 1001 628 998 b 620 989 618 995 618 993 b 627 969 621 985 624 977 l 633 956 l 623 938 b 611 905 616 926 612 914 b 570 757 609 885 602 861 b 539 653 555 707 541 661 b 530 638 536 644 534 639 b 470 627 527 636 500 631 b 355 606 440 622 388 612 b 295 595 322 600 295 595 b 487 897 292 595 468 871 l 502 917 l 545 919 l 541 951 l 554 958 b 566 970 564 964 567 966 b 572 983 565 974 567 978 b 576 996 580 991 580 992 b 575 1011 571 1002 570 1007 b 577 1015 576 1013 577 1015 b 557 1030 576 1016 567 1023 l 539 1045 l 538 1084 l 503 1082 l 496 1095 b 482 1108 490 1104 486 1108 b 475 1110 479 1108 475 1109 b 465 1110 474 1112 470 1112 b 453 1111 460 1109 456 1109 b 445 1110 449 1114 447 1113 b 432 1102 443 1108 437 1104 b 416 1088 426 1099 419 1093 b 393 1080 410 1081 408 1080 l 376 1079 l 376 1063 b 374 1046 376 1054 375 1047 b 359 1037 374 1046 367 1042 b 347 1023 345 1030 345 1029 b 344 1012 350 1017 350 1016 b 340 1005 341 1009 339 1006 b 339 1001 341 1004 341 1002 b 336 990 338 999 337 994 b 333 979 335 985 334 980 b 233 820 325 965 281 895 b 135 662 202 770 158 699 b 90 594 108 616 93 594 b 83 586 87 594 85 590 b 67 573 79 574 76 572 b 58 567 60 575 59 574 b 56 548 57 562 56 554 b 43 530 56 537 56 537 b 29 523 36 526 29 523 b 34 509 28 522 31 516 l 39 496 l 33 484 b 30 460 25 470 24 462 b 33 449 32 459 33 456 b 39 436 32 441 33 439 b 47 422 44 434 46 431 b 55 410 49 412 50 410 b 61 408 58 410 61 409 b 65 405 61 406 63 405 b 69 403 67 405 69 404 b 80 395 69 402 74 399 b 94 382 86 392 93 386 l 97 375 l 108 380 b 142 378 122 387 131 386 b 161 375 153 369 154 368 b 175 377 167 380 168 380 b 186 379 182 375 184 375 b 196 381 189 382 191 382 b 204 384 200 380 202 381 b 210 386 205 387 207 388 b 215 388 213 386 215 386 b 220 390 215 389 218 390 b 226 392 223 390 225 391 b 250 405 226 393 237 399 b 336 429 271 415 282 418 b 482 455 400 441 482 456 b 467 393 483 455 476 427 b 370 -10 451 335 385 56 b 365 -41 367 -26 365 -40 b 442 -61 366 -42 401 -51 z "},"5":{"ha":997,"x_min":0,"x_max":0,"o":"m -16 33 l 17 -41 l 27 -38 b 463 161 55 -28 349 106 b 611 233 503 181 570 213 b 913 449 808 328 876 376 b 924 617 938 499 943 566 b 849 715 911 653 880 694 b 673 780 793 752 730 775 b 534 775 642 782 582 780 b 331 727 488 770 422 754 l 298 718 l 315 759 b 350 840 339 818 346 834 b 429 856 354 845 362 846 b 559 872 470 861 528 869 b 808 904 670 885 798 901 b 820 908 814 905 819 907 b 801 1070 822 910 804 1068 b 687 1059 799 1072 781 1071 b 578 1047 636 1053 587 1047 b 422 1027 552 1044 442 1030 b 400 1027 410 1025 402 1025 b 363 1034 399 1028 382 1031 b 301 1053 330 1038 328 1039 b 269 1063 272 1068 272 1068 b 260 1059 266 1059 263 1058 b 253 1055 258 1060 255 1059 b 243 1051 250 1052 247 1050 b 234 1025 238 1052 238 1050 b 200 992 230 995 232 997 b 176 987 189 991 178 988 b 180 941 173 986 174 976 b 184 889 185 907 186 895 b 166 847 183 885 175 866 b 108 694 146 798 119 729 b 94 664 102 676 97 665 b 89 648 91 664 90 659 b 69 624 87 632 83 628 b 62 619 65 623 62 621 b 58 614 62 617 61 615 b 64 585 53 612 55 602 l 70 573 l 65 556 b 62 518 57 526 56 520 b 67 510 66 517 67 515 b 82 501 66 504 67 503 b 100 496 90 499 99 497 b 107 480 101 494 104 487 b 123 464 113 463 116 460 b 132 463 128 467 129 467 b 164 470 137 457 143 458 l 184 481 l 200 476 b 217 476 213 472 215 472 b 224 478 219 478 221 479 b 231 490 228 477 229 478 l 233 503 l 250 509 b 267 519 260 513 267 517 b 311 540 267 523 271 525 b 526 598 374 563 468 588 b 610 604 553 603 569 604 b 712 586 667 604 684 601 b 724 501 761 561 764 538 b 514 376 689 467 649 444 b 79 172 372 306 284 264 b -49 109 -32 121 -49 113 b -16 33 -49 108 -34 73 z "},"6":{"ha":693,"x_min":0,"x_max":0,"o":"m 630 551 b 629 574 630 561 629 572 b 627 580 629 577 628 579 b 626 584 625 581 625 583 b 624 590 626 585 626 588 b 622 596 623 592 622 594 b 614 615 622 597 619 606 b 571 666 606 633 577 666 b 568 668 569 666 568 667 b 564 671 568 670 566 671 b 559 675 562 671 559 673 b 549 680 558 677 553 679 b 538 684 545 681 540 683 b 532 685 536 686 534 686 b 528 686 531 684 529 685 b 445 690 524 693 473 695 b 380 668 417 685 408 682 b 280 603 348 654 330 642 b 240 575 259 587 241 574 b 304 694 238 577 282 659 b 418 847 343 756 379 805 b 446 866 440 870 440 871 b 457 867 452 863 453 863 b 468 869 461 869 464 870 b 483 884 474 868 475 870 b 521 921 498 911 499 913 b 543 930 532 925 542 929 b 543 938 544 931 544 934 b 546 948 540 944 541 945 b 548 958 550 952 551 953 b 550 975 544 965 544 969 b 555 995 560 984 561 988 b 552 1007 550 1000 550 1002 b 531 1027 554 1013 554 1014 b 504 1043 518 1034 506 1041 b 495 1066 503 1045 499 1055 b 472 1082 487 1087 487 1088 b 465 1086 470 1081 467 1082 b 451 1091 463 1090 460 1091 b 438 1094 445 1091 439 1092 b 431 1091 437 1096 434 1095 b 418 1090 425 1085 424 1085 b 400 1075 410 1095 410 1095 b 356 1038 389 1054 382 1049 b 332 1028 343 1033 332 1029 b 335 1021 332 1028 333 1024 b 329 1010 337 1015 336 1014 b 322 1003 325 1007 322 1004 b 294 971 322 1002 309 987 b 200 852 257 931 235 904 b 40 526 109 720 60 621 b 18 339 33 491 21 392 b 98 111 13 250 42 167 b 129 87 113 97 125 87 b 132 85 131 87 132 86 b 185 63 132 81 167 67 b 286 71 217 56 257 59 b 346 110 299 76 328 95 b 476 247 378 136 450 212 b 597 439 503 283 576 398 b 628 519 611 464 626 504 b 630 529 628 523 629 528 b 630 551 630 530 631 540 z m 411 469 b 357 382 401 450 378 412 b 239 259 322 330 276 282 b 223 251 232 254 225 251 b 202 291 218 251 205 276 b 251 364 195 323 191 317 b 407 476 324 420 376 457 l 417 482 l 411 469 z "},"7":{"ha":708,"x_min":0,"x_max":0,"o":"m 178 31 b 255 -2 245 -3 252 -6 b 386 256 257 0 316 116 b 539 558 456 396 525 531 b 666 771 568 613 616 693 b 717 840 701 826 711 840 b 722 844 719 840 721 841 b 729 847 723 846 726 847 b 736 854 731 847 734 850 b 745 860 738 858 740 860 b 755 872 752 860 753 861 b 768 886 757 883 758 884 b 778 892 776 888 779 889 b 775 911 777 894 776 902 l 773 927 l 799 946 l 794 953 b 790 976 790 958 789 962 b 785 999 791 991 790 995 b 781 1009 782 1003 780 1007 b 776 1019 781 1011 779 1015 b 771 1026 773 1022 771 1025 b 766 1031 771 1028 769 1030 b 761 1036 763 1031 761 1034 b 757 1039 761 1038 759 1039 b 753 1043 755 1039 753 1041 b 719 1057 752 1048 738 1054 b 701 1066 711 1059 705 1062 b 694 1072 698 1069 695 1072 b 684 1064 694 1072 689 1069 l 675 1057 l 649 1071 l 645 1065 b 636 1062 642 1061 641 1060 b 625 1058 628 1065 625 1064 b 617 1055 625 1055 623 1054 b 609 1053 611 1057 609 1056 b 603 1050 609 1051 607 1050 b 597 1048 600 1050 597 1049 b 591 1043 597 1047 594 1045 b 566 1029 588 1041 577 1035 b 477 999 549 1018 541 1015 b 284 958 403 980 322 963 b 243 959 265 956 257 956 b 225 964 233 960 225 963 b 202 961 225 968 214 966 l 190 956 l 178 966 b 161 972 167 975 166 976 b 147 956 158 969 151 962 b 124 942 139 945 137 944 b 86 924 109 940 86 929 b 84 921 86 922 85 921 b 81 916 82 921 81 918 b 77 910 81 913 79 910 b 69 903 74 909 71 906 b 71 885 66 898 66 896 l 77 873 l 69 863 b 64 844 61 854 59 846 b 65 836 65 843 65 839 b 87 814 63 831 66 828 l 110 798 l 114 782 b 123 762 116 773 120 765 b 130 753 126 759 129 755 b 144 756 131 751 134 752 l 157 762 l 170 751 b 186 743 177 746 183 742 b 198 739 188 743 193 742 l 207 734 l 222 756 b 288 786 240 782 234 779 b 449 816 329 790 384 801 b 497 826 475 822 497 827 b 485 804 498 826 492 816 b 390 643 460 765 414 687 b 105 73 363 591 107 80 b 178 31 104 68 113 63 z "},"8":{"ha":817,"x_min":0,"x_max":0,"o":"m 796 226 b 791 255 795 241 794 249 b 789 264 790 259 789 263 b 775 288 789 267 778 286 b 772 294 773 289 772 292 b 770 297 772 296 771 297 b 767 301 768 297 767 299 b 764 304 767 303 766 304 b 760 306 762 304 760 305 b 750 318 760 309 752 318 b 743 324 749 318 746 321 b 734 330 740 328 736 330 b 732 333 733 330 732 331 b 728 335 732 334 730 335 b 724 337 727 335 725 336 b 683 361 724 338 705 349 b 509 473 619 396 570 427 b 474 500 489 487 474 499 b 477 506 474 501 475 504 b 504 505 481 511 481 511 b 541 510 536 496 536 496 b 548 522 544 516 547 522 b 552 542 549 523 551 532 b 560 586 553 553 557 572 b 584 632 566 611 567 612 b 727 819 610 663 699 779 b 773 900 746 846 769 886 b 780 922 775 906 778 916 b 780 994 784 936 784 981 b 778 1003 778 999 778 1003 b 776 1008 779 1003 778 1005 b 773 1014 774 1012 772 1014 b 765 1032 774 1014 770 1022 b 716 1083 755 1049 723 1083 b 713 1085 714 1083 713 1084 b 681 1101 713 1087 697 1094 b 492 1091 640 1116 580 1113 b 239 985 396 1067 303 1028 b 93 778 140 918 99 860 b 130 642 91 734 103 689 b 199 541 146 614 179 566 b 211 521 211 527 213 523 b 169 487 209 519 190 504 b 40 360 120 447 55 382 b 2 234 11 314 0 279 b 22 160 3 207 7 190 b 55 115 33 138 37 132 b 309 25 105 65 198 33 b 407 25 350 22 361 22 b 604 53 478 29 538 38 b 714 91 655 65 697 80 b 729 99 720 95 726 99 b 734 103 732 100 734 102 b 738 107 734 105 736 106 b 748 114 740 108 745 111 b 755 120 750 117 754 120 b 758 123 757 120 758 121 b 761 127 758 125 759 127 b 765 130 763 127 765 128 b 768 135 765 132 766 135 b 772 140 770 136 772 138 b 774 143 772 142 773 143 b 777 148 776 143 777 145 b 779 153 777 151 778 153 b 781 158 780 153 781 155 b 784 162 781 160 782 162 b 790 175 785 162 788 168 b 792 181 790 177 791 179 b 796 226 794 186 797 217 z m 270 786 b 337 853 279 803 309 834 b 517 929 383 884 449 912 b 601 940 545 936 598 943 b 521 812 606 935 568 874 b 415 683 487 766 419 683 b 412 681 414 683 412 682 b 403 674 412 679 408 677 b 393 667 398 672 394 669 b 388 664 392 665 390 664 b 383 661 387 664 384 663 b 374 654 381 659 377 656 b 355 636 371 651 362 643 l 342 623 l 324 646 b 263 765 290 690 263 743 b 270 786 263 769 266 779 z m 464 192 b 307 189 431 187 334 185 b 177 237 248 196 189 217 b 185 274 171 245 173 255 b 274 365 195 288 255 350 l 283 372 l 303 355 b 326 337 314 345 324 337 b 347 358 327 337 337 347 l 366 379 l 404 351 b 555 247 440 323 471 302 b 590 221 576 234 592 222 b 464 192 584 215 515 199 z "},"9":{"ha":664,"x_min":0,"x_max":0,"o":"m 8 530 b 10 505 9 519 9 507 b 12 498 10 502 11 499 b 13 494 14 497 14 495 b 15 487 12 492 13 489 b 17 481 16 485 17 483 b 26 460 17 480 21 470 b 72 405 35 441 66 405 b 76 402 74 405 76 404 b 80 400 76 401 78 400 b 86 396 83 400 85 398 b 96 390 87 393 92 391 b 109 385 101 389 107 387 b 115 384 110 384 113 383 b 119 383 116 385 118 385 b 210 379 123 376 179 373 b 280 402 240 384 249 388 b 389 473 314 418 334 431 b 431 504 412 491 431 504 b 362 375 434 502 386 413 b 238 208 320 308 281 254 b 208 187 215 183 215 183 b 196 187 201 191 201 191 b 184 184 193 184 188 183 b 168 168 178 186 176 184 b 127 128 152 138 150 137 b 103 119 115 124 104 120 b 104 110 102 118 102 114 b 100 98 106 104 105 102 b 98 88 95 95 95 93 b 95 70 103 80 102 76 b 90 48 84 60 83 55 b 93 34 95 42 96 40 b 116 13 91 28 92 27 b 145 -4 130 6 143 -2 b 155 -29 146 -6 151 -18 b 180 -46 164 -52 164 -53 b 187 -51 182 -45 185 -47 b 202 -56 190 -55 193 -56 b 217 -59 209 -56 216 -58 b 225 -56 218 -61 221 -60 b 239 -55 231 -50 232 -50 b 258 -39 247 -60 247 -61 b 306 1 270 -16 277 -10 b 332 12 320 6 332 11 b 329 20 332 12 331 16 b 335 32 327 26 327 27 b 343 39 339 34 343 38 b 373 74 343 40 356 56 b 475 203 413 117 437 147 b 648 557 574 346 627 454 b 672 760 657 595 669 702 b 586 1007 678 857 647 946 b 552 1033 570 1023 557 1033 b 549 1036 550 1033 549 1034 b 492 1060 549 1040 511 1055 b 382 1051 457 1067 413 1064 b 316 1008 368 1045 336 1024 b 176 860 282 980 204 898 b 44 652 146 820 67 696 b 11 564 29 624 13 580 b 9 554 11 560 10 555 b 8 530 8 552 8 542 z m 247 619 b 304 713 257 639 282 680 b 433 847 343 769 393 821 b 450 856 441 852 448 856 b 473 812 456 856 470 828 b 419 733 480 777 485 784 b 250 611 341 672 284 632 l 240 605 l 247 619 z "},"\u0000":{"ha":0,"x_min":0,"x_max":0,"o":""},"\n":{"ha":0,"x_min":0,"x_max":0,"o":""},"\r":{"ha":0,"x_min":0,"x_max":0,"o":""}," ":{"ha":435,"x_min":0,"x_max":0,"o":""},"!":{"ha":383,"x_min":0,"x_max":0,"o":"m 204 284 b 172 272 196 282 181 262 b 163 276 167 275 163 276 b 133 238 162 275 149 258 b 65 160 107 195 76 187 b 55 136 71 155 57 139 b 180 29 80 121 159 40 b 213 48 198 25 195 29 b 322 154 232 73 306 129 b 203 284 292 186 232 256 z m 140 374 b 237 369 199 369 224 343 b 301 939 272 537 302 702 b 299 1090 302 1062 302 1089 b 123 1095 289 1092 157 1094 b 57 391 121 873 103 597 l 140 375 z "},"#":{"ha":1082,"x_min":0,"x_max":0,"o":"m 775 376 b 699 372 773 377 748 376 b 691 443 663 358 694 434 b 732 449 692 444 711 446 b 1020 501 832 461 1016 494 b 995 640 1021 509 999 614 b 713 595 940 633 711 589 b 747 715 716 609 719 711 b 750 751 774 724 756 736 b 761 774 750 754 759 769 b 755 804 755 783 751 794 b 697 838 729 811 709 810 b 663 830 692 856 675 834 b 636 839 657 832 636 848 b 627 837 634 836 632 836 b 602 803 614 837 608 814 b 586 749 592 773 557 791 b 573 719 584 744 568 720 b 561 580 585 732 563 589 b 351 575 545 578 395 574 b 366 686 355 591 362 658 b 413 730 378 697 401 719 b 390 767 406 739 383 760 b 386 779 394 776 391 777 b 381 801 384 779 382 797 b 345 808 372 803 354 806 b 266 833 294 876 312 804 b 252 824 263 829 259 822 b 232 785 240 825 234 796 b 218 731 232 757 190 755 b 212 704 216 724 204 705 b 204 574 224 681 208 613 b 144 581 183 577 158 577 b 115 570 143 588 121 573 b 75 559 92 591 90 581 b 46 560 68 559 53 560 b 24 519 43 543 29 533 b 25 506 20 516 20 516 b 39 453 44 477 -7 475 l 39 419 b 71 410 49 418 71 421 b 88 395 73 401 83 400 b 101 398 90 393 92 394 b 134 390 112 408 121 399 b 180 412 147 413 154 416 b 186 419 178 418 185 434 b 163 347 182 404 181 333 b 59 359 156 346 66 360 b 37 222 58 357 37 229 b 149 199 35 213 127 200 b 151 29 142 158 138 70 b 292 32 146 26 252 30 b 302 202 289 92 291 148 b 522 213 371 204 488 210 b 537 99 524 176 527 126 b 675 224 736 123 660 76 b 786 247 691 230 798 221 b 775 376 785 254 777 370 z m 532 361 b 449 355 514 358 494 358 b 324 349 396 352 364 351 b 334 427 326 363 334 423 b 464 430 366 428 408 428 b 532 361 563 435 538 437 z "},"(":{"ha":731,"x_min":0,"x_max":0,"o":"m 655 174 b 428 157 641 178 443 155 b 373 783 126 214 172 595 b 474 824 423 833 428 863 b 487 845 477 829 484 839 b 525 842 497 844 516 842 b 572 972 539 891 534 927 b 554 1017 553 982 551 997 b 528 1030 546 1020 525 1019 b 522 1038 528 1036 527 1038 b 508 1046 512 1037 518 1046 b 501 1050 504 1046 501 1047 b 491 1054 501 1057 494 1050 b 435 1063 486 1058 439 1058 b 414 1059 425 1069 421 1069 b 384 1055 408 1051 406 1050 b 365 1038 377 1052 380 1034 b 353 1032 357 1038 354 1037 b 402 -34 -8 754 -170 91 b 669 -2 464 -40 601 -9 b 655 174 672 7 658 141 z "},")":{"ha":717,"x_min":0,"x_max":0,"o":"m 328 1066 b 61 1034 266 1073 129 1041 b 76 858 59 1025 73 891 b 303 876 90 854 287 877 b 358 250 605 819 558 438 b 257 209 307 200 303 169 b 243 188 253 203 246 193 b 205 191 234 188 215 190 b 159 60 191 142 196 106 b 176 15 177 51 179 36 b 202 2 185 13 205 13 b 209 -5 202 -4 203 -5 b 222 -13 219 -5 212 -14 b 229 -18 227 -13 229 -15 b 239 -22 229 -24 237 -18 b 296 -31 244 -26 292 -25 b 316 -27 305 -37 309 -36 b 346 -22 322 -18 325 -18 b 365 -5 354 -19 351 -2 b 378 0 374 -5 376 -4 b 328 1066 739 278 901 941 z "},"+":{"ha":639,"x_min":0,"x_max":0,"o":"m 572 550 b 471 534 565 552 479 534 b 507 661 470 570 469 632 b 397 805 564 704 474 724 b 314 738 362 782 339 777 b 279 661 306 711 291 686 b 284 497 272 628 292 545 b 182 476 251 492 211 496 b 110 451 134 511 139 478 b 80 381 70 432 55 417 b 66 329 67 362 54 345 b 119 297 81 309 60 319 b 174 271 139 274 135 242 b 207 255 180 268 206 248 b 241 257 209 260 234 258 b 256 302 245 269 252 291 b 285 307 262 303 283 308 b 298 -13 288 333 296 12 b 479 -16 329 -30 432 -13 b 468 345 477 78 473 320 b 572 550 665 381 597 364 z "},"/":{"ha":618,"x_min":0,"x_max":0,"o":"m 556 958 b 498 1007 537 978 532 994 b 468 1050 489 1023 493 1065 b 400 1048 432 1033 433 1093 b 363 1032 381 1055 378 1064 b 318 1000 358 1011 330 1010 b 318 950 315 993 338 964 b 207 715 305 905 287 854 b -6 238 87 499 60 433 b -31 199 -28 237 -27 246 b -39 92 -26 170 -92 95 b -42 65 -40 85 -41 71 b 69 44 -11 59 39 62 b 135 50 118 15 92 56 b 493 871 181 327 365 599 b 527 917 524 883 545 881 b 556 958 533 925 556 954 z "},":":{"ha":325,"x_min":0,"x_max":0,"o":"m 56 170 b 138 158 57 170 94 164 b 224 146 182 151 221 146 b 252 320 230 122 253 325 b 80 343 250 322 82 345 b 56 170 79 342 55 172 z m 258 609 b 267 654 262 621 283 656 b 262 684 257 653 262 675 b 224 700 249 687 223 685 b 196 718 221 719 202 699 b 137 710 172 705 164 695 b 98 707 102 726 119 709 b 83 681 86 707 87 708 b 51 661 84 666 64 665 b 42 631 54 648 55 636 b 60 597 47 623 56 606 b 62 531 22 528 74 576 b 90 528 69 530 83 529 b 109 495 94 517 97 489 b 123 487 117 495 119 494 l 127 479 b 173 504 139 485 162 498 b 227 508 231 473 194 510 b 257 538 253 503 229 536 b 282 567 276 543 265 560 b 258 609 276 578 264 599 z "},"=":{"ha":649,"x_min":0,"x_max":0,"o":"m 192 393 b 166 420 185 400 172 413 b 141 395 160 413 147 401 b 86 382 90 417 118 385 b 67 326 51 382 63 353 b 37 299 60 319 45 306 b 64 268 44 291 58 276 b 55 237 62 260 57 245 b 83 208 62 231 83 213 b 129 199 79 196 117 199 l 157 170 b 183 194 164 176 177 188 b 278 195 212 180 248 186 b 421 202 295 200 306 201 b 554 204 489 202 549 204 l 563 206 l 563 385 b 246 383 484 384 325 383 b 192 393 248 407 210 396 z m 612 621 b 349 630 617 666 495 627 b 176 639 239 622 275 646 b 139 669 167 646 148 661 b 117 644 133 663 122 650 b 88 646 110 645 89 654 b 56 631 82 639 66 637 b 60 572 57 616 59 586 b 52 499 5 510 41 546 b 56 475 52 487 43 482 b 65 463 61 472 64 467 b 147 433 75 447 130 462 b 178 441 165 415 166 426 b 617 464 265 436 563 455 b 612 621 619 474 612 610 z "},"?":{"ha":588,"x_min":0,"x_max":0,"o":"m 435 212 b 421 223 423 216 421 218 b 385 228 426 233 393 228 b 367 251 380 234 372 245 b 351 240 363 248 355 243 b 293 260 337 245 308 255 b 271 230 286 253 272 239 b 259 211 267 212 266 211 b 248 171 238 215 247 186 b 220 153 241 167 227 158 b 236 129 225 146 230 138 b 238 80 249 113 231 100 b 264 34 240 51 270 74 b 298 38 272 35 289 37 l 307 23 b 367 40 318 -10 345 31 b 439 55 441 19 394 50 b 437 86 438 63 438 78 b 440 143 475 107 458 114 b 435 212 445 170 475 211 z m 386 1129 b 117 718 204 1159 -54 866 b 301 712 176 674 237 685 b 287 893 302 734 325 898 b 442 878 328 947 434 951 b 275 646 438 786 299 734 b 259 416 250 608 253 506 b 233 303 254 395 232 310 b 315 280 234 302 270 292 b 400 257 359 267 397 257 b 445 407 415 259 446 375 b 448 460 448 420 449 432 b 454 574 447 525 449 563 b 386 1129 686 757 729 1075 z "},"@":{"ha":907,"x_min":0,"x_max":0,"o":"m 384 909 b 303 21 8 787 -171 130 b 820 132 378 2 742 99 b 786 256 820 136 787 254 b 760 252 785 258 760 252 b 829 429 789 303 823 374 b 384 909 890 696 667 1021 z m 650 343 b 658 516 641 386 645 476 b 680 526 663 518 684 521 b 690 565 667 550 695 552 b 689 574 687 569 687 571 b 679 598 696 581 671 589 b 656 623 686 615 672 621 b 619 654 649 668 638 630 b 606 660 611 664 611 664 b 572 648 597 655 581 664 b 560 644 569 643 568 643 b 515 631 545 642 531 636 b 470 622 503 622 476 636 b 455 609 465 616 463 620 b 265 295 391 533 253 410 b 269 277 274 288 260 285 b 282 250 276 264 271 266 b 353 207 296 226 325 207 b 372 208 361 213 366 199 b 382 210 376 212 377 212 b 391 212 387 207 388 208 b 408 219 394 220 407 209 b 423 228 407 227 424 220 b 435 238 422 234 436 232 b 506 336 460 261 475 301 b 554 196 513 271 521 239 b 410 165 506 184 444 170 b 333 723 57 120 114 582 b 650 343 589 946 800 557 z "},"A":{"ha":749,"x_min":0,"x_max":0,"o":"m 685 550 b 629 687 685 548 631 710 b 589 673 626 686 608 680 b 548 738 528 648 561 669 b 552 873 539 833 545 817 b 560 888 547 881 555 883 b 554 933 544 906 546 918 b 523 977 540 946 529 944 b 499 993 519 991 506 985 b 467 1006 492 1000 477 1003 b 455 1005 463 1010 459 1001 b 440 1004 449 1009 449 1003 b 384 975 424 1006 402 970 b 366 947 369 973 384 951 b 358 936 357 942 356 941 b 350 919 361 928 349 925 b 179 530 326 835 229 648 b 113 514 160 521 117 512 b 104 516 107 512 106 512 b 86 510 103 523 91 512 l 76 519 b 62 513 72 516 67 508 b 56 512 58 515 57 515 b 43 505 54 507 44 509 b 37 501 42 503 39 501 b 29 495 31 502 34 495 b -12 438 11 488 -9 450 b -15 416 -21 432 -8 425 b -16 406 -19 411 -19 410 b -17 390 -8 403 -21 393 b -12 370 -16 375 -12 379 b -9 360 -14 362 -7 367 b -6 345 -10 353 -5 354 b 1 333 -7 334 0 340 b 4 328 1 330 2 328 b 12 319 9 328 6 319 b 21 310 19 318 14 307 b 33 298 27 312 29 299 b 58 305 35 297 46 300 b 81 312 70 309 81 312 b -6 84 51 240 1 129 b 49 -17 -20 1 -48 1 b 138 26 146 -35 113 -52 b 291 408 143 72 222 258 b 421 451 314 416 415 450 b 475 85 431 342 475 174 b 491 50 489 78 497 67 b 564 7 520 45 535 6 b 571 9 567 5 568 5 b 592 4 577 18 585 9 b 607 13 596 8 601 18 b 615 15 611 11 612 11 b 637 30 624 26 633 8 b 675 68 640 57 659 59 b 673 99 674 75 666 93 b 672 106 675 101 675 103 b 678 134 666 112 677 127 b 675 142 682 136 681 139 b 672 163 666 144 671 156 b 630 174 661 166 641 171 b 569 505 604 229 574 438 b 685 550 592 513 689 549 z m 394 604 b 401 651 358 584 393 624 b 406 608 403 638 404 622 z "},"a":{"ha":749,"x_min":0,"x_max":0,"o":"m 685 550 b 629 687 685 548 631 710 b 589 673 626 686 608 680 b 548 738 528 648 561 669 b 552 873 539 833 545 817 b 560 888 547 881 555 883 b 554 933 544 906 546 918 b 523 977 540 946 529 944 b 499 993 519 991 506 985 b 467 1006 492 1000 477 1003 b 455 1005 463 1010 459 1001 b 440 1004 449 1009 449 1003 b 384 975 424 1006 402 970 b 366 947 369 973 384 951 b 358 936 357 942 356 941 b 350 919 361 928 349 925 b 179 530 326 835 229 648 b 113 514 160 521 117 512 b 104 516 107 512 106 512 b 86 510 103 523 91 512 l 76 519 b 62 513 72 516 67 508 b 56 512 58 515 57 515 b 43 505 54 507 44 509 b 37 501 42 503 39 501 b 29 495 31 502 34 495 b -12 438 11 488 -9 450 b -15 416 -21 432 -8 425 b -16 406 -19 411 -19 410 b -17 390 -8 403 -21 393 b -12 370 -16 375 -12 379 b -9 360 -14 362 -7 367 b -6 345 -10 353 -5 354 b 1 333 -7 334 0 340 b 4 328 1 330 2 328 b 12 319 9 328 6 319 b 21 310 19 318 14 307 b 33 298 27 312 29 299 b 58 305 35 297 46 300 b 81 312 70 309 81 312 b -6 84 51 240 1 129 b 49 -17 -20 1 -48 1 b 138 26 146 -35 113 -52 b 291 408 143 72 222 258 b 421 451 314 416 415 450 b 475 85 431 342 475 174 b 491 50 489 78 497 67 b 564 7 520 45 535 6 b 571 9 567 5 568 5 b 592 4 577 18 585 9 b 607 13 596 8 601 18 b 615 15 611 11 612 11 b 637 30 624 26 633 8 b 675 68 640 57 659 59 b 673 99 674 75 666 93 b 672 106 675 101 675 103 b 678 134 666 112 677 127 b 675 142 682 136 681 139 b 672 163 666 144 671 156 b 630 174 661 166 641 171 b 569 505 604 229 574 438 b 685 550 592 513 689 549 z m 394 604 b 401 651 358 584 393 624 b 406 608 403 638 404 622 z "},"À":{"ha":749,"x_min":0,"x_max":0,"o":"m 685 550 b 629 687 685 548 631 710 b 589 673 626 686 608 680 b 548 738 528 648 561 669 b 552 873 539 833 545 817 b 560 888 547 881 555 883 b 554 933 544 906 546 918 b 523 977 540 946 529 944 b 499 993 519 991 506 985 b 467 1006 492 1000 477 1003 b 455 1005 463 1010 459 1001 b 440 1004 449 1009 449 1003 b 384 975 424 1006 402 970 b 366 947 369 973 384 951 b 358 936 357 942 356 941 b 350 919 361 928 349 925 b 179 530 326 835 229 648 b 113 514 160 521 117 512 b 104 516 107 512 106 512 b 86 510 103 523 91 512 l 76 519 b 62 513 72 516 67 508 b 56 512 58 515 57 515 b 43 505 54 507 44 509 b 37 501 42 503 39 501 b 29 495 31 502 34 495 b -12 438 11 488 -9 450 b -15 416 -21 432 -8 425 b -16 406 -19 411 -19 410 b -17 390 -8 403 -21 393 b -12 370 -16 375 -12 379 b -9 360 -14 362 -7 367 b -6 345 -10 353 -5 354 b 1 333 -7 334 0 340 b 4 328 1 330 2 328 b 12 319 9 328 6 319 b 21 310 19 318 14 307 b 33 298 27 312 29 299 b 58 305 35 297 46 300 b 81 312 70 309 81 312 b -6 84 51 240 1 129 b 49 -17 -20 1 -48 1 b 138 26 146 -35 113 -52 b 291 408 143 72 222 258 b 421 451 314 416 415 450 b 475 85 431 342 475 174 b 491 50 489 78 497 67 b 564 7 520 45 535 6 b 571 9 567 5 568 5 b 592 4 577 18 585 9 b 607 13 596 8 601 18 b 615 15 611 11 612 11 b 637 30 624 26 633 8 b 675 68 640 57 659 59 b 673 99 674 75 666 93 b 672 106 675 101 675 103 b 678 134 666 112 677 127 b 675 142 682 136 681 139 b 672 163 666 144 671 156 b 630 174 661 166 641 171 b 569 505 604 229 574 438 b 685 550 592 513 689 549 z m 394 604 b 401 651 358 584 393 624 b 406 608 403 638 404 622 z "},"Á":{"ha":749,"x_min":0,"x_max":0,"o":"m 685 550 b 629 687 685 548 631 710 b 589 673 626 686 608 680 b 548 738 528 648 561 669 b 552 873 539 833 545 817 b 560 888 547 881 555 883 b 554 933 544 906 546 918 b 523 977 540 946 529 944 b 499 993 519 991 506 985 b 467 1006 492 1000 477 1003 b 455 1005 463 1010 459 1001 b 440 1004 449 1009 449 1003 b 384 975 424 1006 402 970 b 366 947 369 973 384 951 b 358 936 357 942 356 941 b 350 919 361 928 349 925 b 179 530 326 835 229 648 b 113 514 160 521 117 512 b 104 516 107 512 106 512 b 86 510 103 523 91 512 l 76 519 b 62 513 72 516 67 508 b 56 512 58 515 57 515 b 43 505 54 507 44 509 b 37 501 42 503 39 501 b 29 495 31 502 34 495 b -12 438 11 488 -9 450 b -15 416 -21 432 -8 425 b -16 406 -19 411 -19 410 b -17 390 -8 403 -21 393 b -12 370 -16 375 -12 379 b -9 360 -14 362 -7 367 b -6 345 -10 353 -5 354 b 1 333 -7 334 0 340 b 4 328 1 330 2 328 b 12 319 9 328 6 319 b 21 310 19 318 14 307 b 33 298 27 312 29 299 b 58 305 35 297 46 300 b 81 312 70 309 81 312 b -6 84 51 240 1 129 b 49 -17 -20 1 -48 1 b 138 26 146 -35 113 -52 b 291 408 143 72 222 258 b 421 451 314 416 415 450 b 475 85 431 342 475 174 b 491 50 489 78 497 67 b 564 7 520 45 535 6 b 571 9 567 5 568 5 b 592 4 577 18 585 9 b 607 13 596 8 601 18 b 615 15 611 11 612 11 b 637 30 624 26 633 8 b 675 68 640 57 659 59 b 673 99 674 75 666 93 b 672 106 675 101 675 103 b 678 134 666 112 677 127 b 675 142 682 136 681 139 b 672 163 666 144 671 156 b 630 174 661 166 641 171 b 569 505 604 229 574 438 b 685 550 592 513 689 549 z m 394 604 b 401 651 358 584 393 624 b 406 608 403 638 404 622 z "},"Â":{"ha":749,"x_min":0,"x_max":0,"o":"m 685 550 b 629 687 685 548 631 710 b 589 673 626 686 608 680 b 548 738 528 648 561 669 b 552 873 539 833 545 817 b 560 888 547 881 555 883 b 554 933 544 906 546 918 b 523 977 540 946 529 944 b 499 993 519 991 506 985 b 467 1006 492 1000 477 1003 b 455 1005 463 1010 459 1001 b 440 1004 449 1009 449 1003 b 384 975 424 1006 402 970 b 366 947 369 973 384 951 b 358 936 357 942 356 941 b 350 919 361 928 349 925 b 179 530 326 835 229 648 b 113 514 160 521 117 512 b 104 516 107 512 106 512 b 86 510 103 523 91 512 l 76 519 b 62 513 72 516 67 508 b 56 512 58 515 57 515 b 43 505 54 507 44 509 b 37 501 42 503 39 501 b 29 495 31 502 34 495 b -12 438 11 488 -9 450 b -15 416 -21 432 -8 425 b -16 406 -19 411 -19 410 b -17 390 -8 403 -21 393 b -12 370 -16 375 -12 379 b -9 360 -14 362 -7 367 b -6 345 -10 353 -5 354 b 1 333 -7 334 0 340 b 4 328 1 330 2 328 b 12 319 9 328 6 319 b 21 310 19 318 14 307 b 33 298 27 312 29 299 b 58 305 35 297 46 300 b 81 312 70 309 81 312 b -6 84 51 240 1 129 b 49 -17 -20 1 -48 1 b 138 26 146 -35 113 -52 b 291 408 143 72 222 258 b 421 451 314 416 415 450 b 475 85 431 342 475 174 b 491 50 489 78 497 67 b 564 7 520 45 535 6 b 571 9 567 5 568 5 b 592 4 577 18 585 9 b 607 13 596 8 601 18 b 615 15 611 11 612 11 b 637 30 624 26 633 8 b 675 68 640 57 659 59 b 673 99 674 75 666 93 b 672 106 675 101 675 103 b 678 134 666 112 677 127 b 675 142 682 136 681 139 b 672 163 666 144 671 156 b 630 174 661 166 641 171 b 569 505 604 229 574 438 b 685 550 592 513 689 549 z m 394 604 b 401 651 358 584 393 624 b 406 608 403 638 404 622 z "},"Ã":{"ha":749,"x_min":0,"x_max":0,"o":"m 685 550 b 629 687 685 548 631 710 b 589 673 626 686 608 680 b 548 738 528 648 561 669 b 552 873 539 833 545 817 b 560 888 547 881 555 883 b 554 933 544 906 546 918 b 523 977 540 946 529 944 b 499 993 519 991 506 985 b 467 1006 492 1000 477 1003 b 455 1005 463 1010 459 1001 b 440 1004 449 1009 449 1003 b 384 975 424 1006 402 970 b 366 947 369 973 384 951 b 358 936 357 942 356 941 b 350 919 361 928 349 925 b 179 530 326 835 229 648 b 113 514 160 521 117 512 b 104 516 107 512 106 512 b 86 510 103 523 91 512 l 76 519 b 62 513 72 516 67 508 b 56 512 58 515 57 515 b 43 505 54 507 44 509 b 37 501 42 503 39 501 b 29 495 31 502 34 495 b -12 438 11 488 -9 450 b -15 416 -21 432 -8 425 b -16 406 -19 411 -19 410 b -17 390 -8 403 -21 393 b -12 370 -16 375 -12 379 b -9 360 -14 362 -7 367 b -6 345 -10 353 -5 354 b 1 333 -7 334 0 340 b 4 328 1 330 2 328 b 12 319 9 328 6 319 b 21 310 19 318 14 307 b 33 298 27 312 29 299 b 58 305 35 297 46 300 b 81 312 70 309 81 312 b -6 84 51 240 1 129 b 49 -17 -20 1 -48 1 b 138 26 146 -35 113 -52 b 291 408 143 72 222 258 b 421 451 314 416 415 450 b 475 85 431 342 475 174 b 491 50 489 78 497 67 b 564 7 520 45 535 6 b 571 9 567 5 568 5 b 592 4 577 18 585 9 b 607 13 596 8 601 18 b 615 15 611 11 612 11 b 637 30 624 26 633 8 b 675 68 640 57 659 59 b 673 99 674 75 666 93 b 672 106 675 101 675 103 b 678 134 666 112 677 127 b 675 142 682 136 681 139 b 672 163 666 144 671 156 b 630 174 661 166 641 171 b 569 505 604 229 574 438 b 685 550 592 513 689 549 z m 394 604 b 401 651 358 584 393 624 b 406 608 403 638 404 622 z "},"Ä":{"ha":749,"x_min":0,"x_max":0,"o":"m 685 550 b 629 687 685 548 631 710 b 589 673 626 686 608 680 b 548 738 528 648 561 669 b 552 873 539 833 545 817 b 560 888 547 881 555 883 b 554 933 544 906 546 918 b 523 977 540 946 529 944 b 499 993 519 991 506 985 b 467 1006 492 1000 477 1003 b 455 1005 463 1010 459 1001 b 440 1004 449 1009 449 1003 b 384 975 424 1006 402 970 b 366 947 369 973 384 951 b 358 936 357 942 356 941 b 350 919 361 928 349 925 b 179 530 326 835 229 648 b 113 514 160 521 117 512 b 104 516 107 512 106 512 b 86 510 103 523 91 512 l 76 519 b 62 513 72 516 67 508 b 56 512 58 515 57 515 b 43 505 54 507 44 509 b 37 501 42 503 39 501 b 29 495 31 502 34 495 b -12 438 11 488 -9 450 b -15 416 -21 432 -8 425 b -16 406 -19 411 -19 410 b -17 390 -8 403 -21 393 b -12 370 -16 375 -12 379 b -9 360 -14 362 -7 367 b -6 345 -10 353 -5 354 b 1 333 -7 334 0 340 b 4 328 1 330 2 328 b 12 319 9 328 6 319 b 21 310 19 318 14 307 b 33 298 27 312 29 299 b 58 305 35 297 46 300 b 81 312 70 309 81 312 b -6 84 51 240 1 129 b 49 -17 -20 1 -48 1 b 138 26 146 -35 113 -52 b 291 408 143 72 222 258 b 421 451 314 416 415 450 b 475 85 431 342 475 174 b 491 50 489 78 497 67 b 564 7 520 45 535 6 b 571 9 567 5 568 5 b 592 4 577 18 585 9 b 607 13 596 8 601 18 b 615 15 611 11 612 11 b 637 30 624 26 633 8 b 675 68 640 57 659 59 b 673 99 674 75 666 93 b 672 106 675 101 675 103 b 678 134 666 112 677 127 b 675 142 682 136 681 139 b 672 163 666 144 671 156 b 630 174 661 166 641 171 b 569 505 604 229 574 438 b 685 550 592 513 689 549 z m 394 604 b 401 651 358 584 393 624 b 406 608 403 638 404 622 z "},"Å":{"ha":749,"x_min":0,"x_max":0,"o":"m 685 550 b 629 687 685 548 631 710 b 589 673 626 686 608 680 b 548 738 528 648 561 669 b 552 873 539 833 545 817 b 560 888 547 881 555 883 b 554 933 544 906 546 918 b 523 977 540 946 529 944 b 499 993 519 991 506 985 b 467 1006 492 1000 477 1003 b 455 1005 463 1010 459 1001 b 440 1004 449 1009 449 1003 b 384 975 424 1006 402 970 b 366 947 369 973 384 951 b 358 936 357 942 356 941 b 350 919 361 928 349 925 b 179 530 326 835 229 648 b 113 514 160 521 117 512 b 104 516 107 512 106 512 b 86 510 103 523 91 512 l 76 519 b 62 513 72 516 67 508 b 56 512 58 515 57 515 b 43 505 54 507 44 509 b 37 501 42 503 39 501 b 29 495 31 502 34 495 b -12 438 11 488 -9 450 b -15 416 -21 432 -8 425 b -16 406 -19 411 -19 410 b -17 390 -8 403 -21 393 b -12 370 -16 375 -12 379 b -9 360 -14 362 -7 367 b -6 345 -10 353 -5 354 b 1 333 -7 334 0 340 b 4 328 1 330 2 328 b 12 319 9 328 6 319 b 21 310 19 318 14 307 b 33 298 27 312 29 299 b 58 305 35 297 46 300 b 81 312 70 309 81 312 b -6 84 51 240 1 129 b 49 -17 -20 1 -48 1 b 138 26 146 -35 113 -52 b 291 408 143 72 222 258 b 421 451 314 416 415 450 b 475 85 431 342 475 174 b 491 50 489 78 497 67 b 564 7 520 45 535 6 b 571 9 567 5 568 5 b 592 4 577 18 585 9 b 607 13 596 8 601 18 b 615 15 611 11 612 11 b 637 30 624 26 633 8 b 675 68 640 57 659 59 b 673 99 674 75 666 93 b 672 106 675 101 675 103 b 678 134 666 112 677 127 b 675 142 682 136 681 139 b 672 163 666 144 671 156 b 630 174 661 166 641 171 b 569 505 604 229 574 438 b 685 550 592 513 689 549 z m 394 604 b 401 651 358 584 393 624 b 406 608 403 638 404 622 z "},"à":{"ha":749,"x_min":0,"x_max":0,"o":"m 685 550 b 629 687 685 548 631 710 b 589 673 626 686 608 680 b 548 738 528 648 561 669 b 552 873 539 833 545 817 b 560 888 547 881 555 883 b 554 933 544 906 546 918 b 523 977 540 946 529 944 b 499 993 519 991 506 985 b 467 1006 492 1000 477 1003 b 455 1005 463 1010 459 1001 b 440 1004 449 1009 449 1003 b 384 975 424 1006 402 970 b 366 947 369 973 384 951 b 358 936 357 942 356 941 b 350 919 361 928 349 925 b 179 530 326 835 229 648 b 113 514 160 521 117 512 b 104 516 107 512 106 512 b 86 510 103 523 91 512 l 76 519 b 62 513 72 516 67 508 b 56 512 58 515 57 515 b 43 505 54 507 44 509 b 37 501 42 503 39 501 b 29 495 31 502 34 495 b -12 438 11 488 -9 450 b -15 416 -21 432 -8 425 b -16 406 -19 411 -19 410 b -17 390 -8 403 -21 393 b -12 370 -16 375 -12 379 b -9 360 -14 362 -7 367 b -6 345 -10 353 -5 354 b 1 333 -7 334 0 340 b 4 328 1 330 2 328 b 12 319 9 328 6 319 b 21 310 19 318 14 307 b 33 298 27 312 29 299 b 58 305 35 297 46 300 b 81 312 70 309 81 312 b -6 84 51 240 1 129 b 49 -17 -20 1 -48 1 b 138 26 146 -35 113 -52 b 291 408 143 72 222 258 b 421 451 314 416 415 450 b 475 85 431 342 475 174 b 491 50 489 78 497 67 b 564 7 520 45 535 6 b 571 9 567 5 568 5 b 592 4 577 18 585 9 b 607 13 596 8 601 18 b 615 15 611 11 612 11 b 637 30 624 26 633 8 b 675 68 640 57 659 59 b 673 99 674 75 666 93 b 672 106 675 101 675 103 b 678 134 666 112 677 127 b 675 142 682 136 681 139 b 672 163 666 144 671 156 b 630 174 661 166 641 171 b 569 505 604 229 574 438 b 685 550 592 513 689 549 z m 394 604 b 401 651 358 584 393 624 b 406 608 403 638 404 622 z "},"á":{"ha":749,"x_min":0,"x_max":0,"o":"m 685 550 b 629 687 685 548 631 710 b 589 673 626 686 608 680 b 548 738 528 648 561 669 b 552 873 539 833 545 817 b 560 888 547 881 555 883 b 554 933 544 906 546 918 b 523 977 540 946 529 944 b 499 993 519 991 506 985 b 467 1006 492 1000 477 1003 b 455 1005 463 1010 459 1001 b 440 1004 449 1009 449 1003 b 384 975 424 1006 402 970 b 366 947 369 973 384 951 b 358 936 357 942 356 941 b 350 919 361 928 349 925 b 179 530 326 835 229 648 b 113 514 160 521 117 512 b 104 516 107 512 106 512 b 86 510 103 523 91 512 l 76 519 b 62 513 72 516 67 508 b 56 512 58 515 57 515 b 43 505 54 507 44 509 b 37 501 42 503 39 501 b 29 495 31 502 34 495 b -12 438 11 488 -9 450 b -15 416 -21 432 -8 425 b -16 406 -19 411 -19 410 b -17 390 -8 403 -21 393 b -12 370 -16 375 -12 379 b -9 360 -14 362 -7 367 b -6 345 -10 353 -5 354 b 1 333 -7 334 0 340 b 4 328 1 330 2 328 b 12 319 9 328 6 319 b 21 310 19 318 14 307 b 33 298 27 312 29 299 b 58 305 35 297 46 300 b 81 312 70 309 81 312 b -6 84 51 240 1 129 b 49 -17 -20 1 -48 1 b 138 26 146 -35 113 -52 b 291 408 143 72 222 258 b 421 451 314 416 415 450 b 475 85 431 342 475 174 b 491 50 489 78 497 67 b 564 7 520 45 535 6 b 571 9 567 5 568 5 b 592 4 577 18 585 9 b 607 13 596 8 601 18 b 615 15 611 11 612 11 b 637 30 624 26 633 8 b 675 68 640 57 659 59 b 673 99 674 75 666 93 b 672 106 675 101 675 103 b 678 134 666 112 677 127 b 675 142 682 136 681 139 b 672 163 666 144 671 156 b 630 174 661 166 641 171 b 569 505 604 229 574 438 b 685 550 592 513 689 549 z m 394 604 b 401 651 358 584 393 624 b 406 608 403 638 404 622 z "},"â":{"ha":749,"x_min":0,"x_max":0,"o":"m 685 550 b 629 687 685 548 631 710 b 589 673 626 686 608 680 b 548 738 528 648 561 669 b 552 873 539 833 545 817 b 560 888 547 881 555 883 b 554 933 544 906 546 918 b 523 977 540 946 529 944 b 499 993 519 991 506 985 b 467 1006 492 1000 477 1003 b 455 1005 463 1010 459 1001 b 440 1004 449 1009 449 1003 b 384 975 424 1006 402 970 b 366 947 369 973 384 951 b 358 936 357 942 356 941 b 350 919 361 928 349 925 b 179 530 326 835 229 648 b 113 514 160 521 117 512 b 104 516 107 512 106 512 b 86 510 103 523 91 512 l 76 519 b 62 513 72 516 67 508 b 56 512 58 515 57 515 b 43 505 54 507 44 509 b 37 501 42 503 39 501 b 29 495 31 502 34 495 b -12 438 11 488 -9 450 b -15 416 -21 432 -8 425 b -16 406 -19 411 -19 410 b -17 390 -8 403 -21 393 b -12 370 -16 375 -12 379 b -9 360 -14 362 -7 367 b -6 345 -10 353 -5 354 b 1 333 -7 334 0 340 b 4 328 1 330 2 328 b 12 319 9 328 6 319 b 21 310 19 318 14 307 b 33 298 27 312 29 299 b 58 305 35 297 46 300 b 81 312 70 309 81 312 b -6 84 51 240 1 129 b 49 -17 -20 1 -48 1 b 138 26 146 -35 113 -52 b 291 408 143 72 222 258 b 421 451 314 416 415 450 b 475 85 431 342 475 174 b 491 50 489 78 497 67 b 564 7 520 45 535 6 b 571 9 567 5 568 5 b 592 4 577 18 585 9 b 607 13 596 8 601 18 b 615 15 611 11 612 11 b 637 30 624 26 633 8 b 675 68 640 57 659 59 b 673 99 674 75 666 93 b 672 106 675 101 675 103 b 678 134 666 112 677 127 b 675 142 682 136 681 139 b 672 163 666 144 671 156 b 630 174 661 166 641 171 b 569 505 604 229 574 438 b 685 550 592 513 689 549 z m 394 604 b 401 651 358 584 393 624 b 406 608 403 638 404 622 z "},"ã":{"ha":749,"x_min":0,"x_max":0,"o":"m 685 550 b 629 687 685 548 631 710 b 589 673 626 686 608 680 b 548 738 528 648 561 669 b 552 873 539 833 545 817 b 560 888 547 881 555 883 b 554 933 544 906 546 918 b 523 977 540 946 529 944 b 499 993 519 991 506 985 b 467 1006 492 1000 477 1003 b 455 1005 463 1010 459 1001 b 440 1004 449 1009 449 1003 b 384 975 424 1006 402 970 b 366 947 369 973 384 951 b 358 936 357 942 356 941 b 350 919 361 928 349 925 b 179 530 326 835 229 648 b 113 514 160 521 117 512 b 104 516 107 512 106 512 b 86 510 103 523 91 512 l 76 519 b 62 513 72 516 67 508 b 56 512 58 515 57 515 b 43 505 54 507 44 509 b 37 501 42 503 39 501 b 29 495 31 502 34 495 b -12 438 11 488 -9 450 b -15 416 -21 432 -8 425 b -16 406 -19 411 -19 410 b -17 390 -8 403 -21 393 b -12 370 -16 375 -12 379 b -9 360 -14 362 -7 367 b -6 345 -10 353 -5 354 b 1 333 -7 334 0 340 b 4 328 1 330 2 328 b 12 319 9 328 6 319 b 21 310 19 318 14 307 b 33 298 27 312 29 299 b 58 305 35 297 46 300 b 81 312 70 309 81 312 b -6 84 51 240 1 129 b 49 -17 -20 1 -48 1 b 138 26 146 -35 113 -52 b 291 408 143 72 222 258 b 421 451 314 416 415 450 b 475 85 431 342 475 174 b 491 50 489 78 497 67 b 564 7 520 45 535 6 b 571 9 567 5 568 5 b 592 4 577 18 585 9 b 607 13 596 8 601 18 b 615 15 611 11 612 11 b 637 30 624 26 633 8 b 675 68 640 57 659 59 b 673 99 674 75 666 93 b 672 106 675 101 675 103 b 678 134 666 112 677 127 b 675 142 682 136 681 139 b 672 163 666 144 671 156 b 630 174 661 166 641 171 b 569 505 604 229 574 438 b 685 550 592 513 689 549 z m 394 604 b 401 651 358 584 393 624 b 406 608 403 638 404 622 z "},"ä":{"ha":749,"x_min":0,"x_max":0,"o":"m 685 550 b 629 687 685 548 631 710 b 589 673 626 686 608 680 b 548 738 528 648 561 669 b 552 873 539 833 545 817 b 560 888 547 881 555 883 b 554 933 544 906 546 918 b 523 977 540 946 529 944 b 499 993 519 991 506 985 b 467 1006 492 1000 477 1003 b 455 1005 463 1010 459 1001 b 440 1004 449 1009 449 1003 b 384 975 424 1006 402 970 b 366 947 369 973 384 951 b 358 936 357 942 356 941 b 350 919 361 928 349 925 b 179 530 326 835 229 648 b 113 514 160 521 117 512 b 104 516 107 512 106 512 b 86 510 103 523 91 512 l 76 519 b 62 513 72 516 67 508 b 56 512 58 515 57 515 b 43 505 54 507 44 509 b 37 501 42 503 39 501 b 29 495 31 502 34 495 b -12 438 11 488 -9 450 b -15 416 -21 432 -8 425 b -16 406 -19 411 -19 410 b -17 390 -8 403 -21 393 b -12 370 -16 375 -12 379 b -9 360 -14 362 -7 367 b -6 345 -10 353 -5 354 b 1 333 -7 334 0 340 b 4 328 1 330 2 328 b 12 319 9 328 6 319 b 21 310 19 318 14 307 b 33 298 27 312 29 299 b 58 305 35 297 46 300 b 81 312 70 309 81 312 b -6 84 51 240 1 129 b 49 -17 -20 1 -48 1 b 138 26 146 -35 113 -52 b 291 408 143 72 222 258 b 421 451 314 416 415 450 b 475 85 431 342 475 174 b 491 50 489 78 497 67 b 564 7 520 45 535 6 b 571 9 567 5 568 5 b 592 4 577 18 585 9 b 607 13 596 8 601 18 b 615 15 611 11 612 11 b 637 30 624 26 633 8 b 675 68 640 57 659 59 b 673 99 674 75 666 93 b 672 106 675 101 675 103 b 678 134 666 112 677 127 b 675 142 682 136 681 139 b 672 163 666 144 671 156 b 630 174 661 166 641 171 b 569 505 604 229 574 438 b 685 550 592 513 689 549 z m 394 604 b 401 651 358 584 393 624 b 406 608 403 638 404 622 z "},"å":{"ha":749,"x_min":0,"x_max":0,"o":"m 685 550 b 629 687 685 548 631 710 b 589 673 626 686 608 680 b 548 738 528 648 561 669 b 552 873 539 833 545 817 b 560 888 547 881 555 883 b 554 933 544 906 546 918 b 523 977 540 946 529 944 b 499 993 519 991 506 985 b 467 1006 492 1000 477 1003 b 455 1005 463 1010 459 1001 b 440 1004 449 1009 449 1003 b 384 975 424 1006 402 970 b 366 947 369 973 384 951 b 358 936 357 942 356 941 b 350 919 361 928 349 925 b 179 530 326 835 229 648 b 113 514 160 521 117 512 b 104 516 107 512 106 512 b 86 510 103 523 91 512 l 76 519 b 62 513 72 516 67 508 b 56 512 58 515 57 515 b 43 505 54 507 44 509 b 37 501 42 503 39 501 b 29 495 31 502 34 495 b -12 438 11 488 -9 450 b -15 416 -21 432 -8 425 b -16 406 -19 411 -19 410 b -17 390 -8 403 -21 393 b -12 370 -16 375 -12 379 b -9 360 -14 362 -7 367 b -6 345 -10 353 -5 354 b 1 333 -7 334 0 340 b 4 328 1 330 2 328 b 12 319 9 328 6 319 b 21 310 19 318 14 307 b 33 298 27 312 29 299 b 58 305 35 297 46 300 b 81 312 70 309 81 312 b -6 84 51 240 1 129 b 49 -17 -20 1 -48 1 b 138 26 146 -35 113 -52 b 291 408 143 72 222 258 b 421 451 314 416 415 450 b 475 85 431 342 475 174 b 491 50 489 78 497 67 b 564 7 520 45 535 6 b 571 9 567 5 568 5 b 592 4 577 18 585 9 b 607 13 596 8 601 18 b 615 15 611 11 612 11 b 637 30 624 26 633 8 b 675 68 640 57 659 59 b 673 99 674 75 666 93 b 672 106 675 101 675 103 b 678 134 666 112 677 127 b 675 142 682 136 681 139 b 672 163 666 144 671 156 b 630 174 661 166 641 171 b 569 505 604 229 574 438 b 685 550 592 513 689 549 z m 394 604 b 401 651 358 584 393 624 b 406 608 403 638 404 622 z "},"B":{"ha":639,"x_min":0,"x_max":0,"o":"m 412 566 b 565 835 493 652 579 728 b 287 911 541 967 385 978 b 205 958 267 923 225 946 b 121 752 148 908 127 825 b 60 626 102 719 73 662 b 96 602 58 622 97 605 b 78 497 96 600 78 499 b 48 465 58 507 52 483 b 14 426 9 458 29 452 b 10 377 -5 402 12 395 b 18 358 3 363 21 369 b 36 347 16 352 16 352 b 36 235 71 344 35 266 l 7 225 b -39 204 -31 213 -39 209 b -20 86 -35 178 1 105 b 0 67 -6 80 -17 71 b 13 42 16 64 11 54 l 44 42 b 87 23 62 -3 67 41 b 107 23 99 9 95 26 b 148 46 121 19 137 42 b 158 59 157 47 159 50 b 183 91 151 74 176 84 b 241 145 167 125 185 123 b 611 344 372 188 550 239 b 412 566 673 470 544 581 z m 265 682 b 388 782 275 705 360 777 b 306 680 382 759 339 713 b 265 682 235 606 258 637 z m 265 314 b 210 360 167 276 208 297 b 448 403 278 386 380 417 b 265 314 398 363 381 355 z "},"b":{"ha":639,"x_min":0,"x_max":0,"o":"m 412 566 b 565 835 493 652 579 728 b 287 911 541 967 385 978 b 205 958 267 923 225 946 b 121 752 148 908 127 825 b 60 626 102 719 73 662 b 96 602 58 622 97 605 b 78 497 96 600 78 499 b 48 465 58 507 52 483 b 14 426 9 458 29 452 b 10 377 -5 402 12 395 b 18 358 3 363 21 369 b 36 347 16 352 16 352 b 36 235 71 344 35 266 l 7 225 b -39 204 -31 213 -39 209 b -20 86 -35 178 1 105 b 0 67 -6 80 -17 71 b 13 42 16 64 11 54 l 44 42 b 87 23 62 -3 67 41 b 107 23 99 9 95 26 b 148 46 121 19 137 42 b 158 59 157 47 159 50 b 183 91 151 74 176 84 b 241 145 167 125 185 123 b 611 344 372 188 550 239 b 412 566 673 470 544 581 z m 265 682 b 388 782 275 705 360 777 b 306 680 382 759 339 713 b 265 682 235 606 258 637 z m 265 314 b 210 360 167 276 208 297 b 448 403 278 386 380 417 b 265 314 398 363 381 355 z "},"C":{"ha":632,"x_min":0,"x_max":0,"o":"m 511 423 b 234 194 472 388 269 194 b 369 732 -20 115 266 682 b 469 754 423 782 420 785 b 550 876 503 787 518 831 b 518 915 533 887 528 904 b 508 927 509 915 515 927 b 496 936 502 927 503 936 b 492 939 494 936 492 937 b 429 956 483 951 448 952 b 396 953 418 960 402 957 b 381 947 394 947 384 955 b 138 20 144 791 -248 201 b 614 317 319 -12 502 210 b 511 423 595 336 530 406 z "},"c":{"ha":632,"x_min":0,"x_max":0,"o":"m 511 423 b 234 194 472 388 269 194 b 369 732 -20 115 266 682 b 469 754 423 782 420 785 b 550 876 503 787 518 831 b 518 915 533 887 528 904 b 508 927 509 915 515 927 b 496 936 502 927 503 936 b 492 939 494 936 492 937 b 429 956 483 951 448 952 b 396 953 418 960 402 957 b 381 947 394 947 384 955 b 138 20 144 791 -248 201 b 614 317 319 -12 502 210 b 511 423 595 336 530 406 z "},"Ç":{"ha":632,"x_min":0,"x_max":0,"o":"m 511 423 b 234 194 472 388 269 194 b 369 732 -20 115 266 682 b 469 754 423 782 420 785 b 550 876 503 787 518 831 b 518 915 533 887 528 904 b 508 927 509 915 515 927 b 496 936 502 927 503 936 b 492 939 494 936 492 937 b 429 956 483 951 448 952 b 396 953 418 960 402 957 b 381 947 394 947 384 955 b 138 20 144 791 -248 201 b 614 317 319 -12 502 210 b 511 423 595 336 530 406 z "},"ç":{"ha":632,"x_min":0,"x_max":0,"o":"m 511 423 b 234 194 472 388 269 194 b 369 732 -20 115 266 682 b 469 754 423 782 420 785 b 550 876 503 787 518 831 b 518 915 533 887 528 904 b 508 927 509 915 515 927 b 496 936 502 927 503 936 b 492 939 494 936 492 937 b 429 956 483 951 448 952 b 396 953 418 960 402 957 b 381 947 394 947 384 955 b 138 20 144 791 -248 201 b 614 317 319 -12 502 210 b 511 423 595 336 530 406 z "},"D":{"ha":621,"x_min":0,"x_max":0,"o":"m 589 823 b 144 902 509 921 251 968 b 114 909 137 904 122 907 b 13 187 56 731 43 375 b -10 146 0 173 -32 164 b -20 134 -12 143 -17 137 b -14 119 -14 129 -8 128 b -6 101 -22 108 -5 111 b 41 80 -4 85 18 84 b 69 47 46 73 65 47 b 87 48 76 48 77 58 l 94 42 b 103 54 96 45 101 51 b 135 58 112 35 125 48 b 145 58 138 61 139 61 b 174 61 165 48 160 61 b 189 100 187 59 183 89 b 589 823 409 246 796 529 z m 209 298 b 176 277 183 280 176 275 b 238 758 190 411 239 797 b 348 769 250 779 317 769 b 209 298 672 708 359 400 z "},"d":{"ha":621,"x_min":0,"x_max":0,"o":"m 589 823 b 144 902 509 921 251 968 b 114 909 137 904 122 907 b 13 187 56 731 43 375 b -10 146 0 173 -32 164 b -20 134 -12 143 -17 137 b -14 119 -14 129 -8 128 b -6 101 -22 108 -5 111 b 41 80 -4 85 18 84 b 69 47 46 73 65 47 b 87 48 76 48 77 58 l 94 42 b 103 54 96 45 101 51 b 135 58 112 35 125 48 b 145 58 138 61 139 61 b 174 61 165 48 160 61 b 189 100 187 59 183 89 b 589 823 409 246 796 529 z m 209 298 b 176 277 183 280 176 275 b 238 758 190 411 239 797 b 348 769 250 779 317 769 b 209 298 672 708 359 400 z "},"E":{"ha":726,"x_min":0,"x_max":0,"o":"m 620 266 b 326 207 543 244 398 188 b 341 439 303 233 339 410 b 359 445 343 444 344 445 b 594 426 363 448 626 412 b 453 591 618 611 634 560 b 374 599 438 596 386 597 b 418 755 374 607 415 752 b 614 912 636 783 621 694 b 436 909 557 912 485 913 b 313 934 413 914 319 935 b 303 898 311 931 305 906 b 198 883 274 895 201 887 b 180 892 188 876 188 892 b 71 837 159 878 84 844 b 72 787 67 814 45 823 b 136 691 107 748 101 700 b 221 729 163 695 186 727 b 249 724 254 737 253 737 b 221 619 246 716 224 627 b 176 604 200 597 207 626 b 84 570 155 582 84 601 b 70 547 82 556 82 552 b 97 473 78 529 99 499 b 109 434 101 435 100 436 b 123 429 119 433 115 429 b 133 424 130 429 127 424 b 162 429 144 419 136 416 b 307 42 248 478 29 89 b 668 131 395 36 614 91 b 620 266 667 131 620 267 z "},"e":{"ha":726,"x_min":0,"x_max":0,"o":"m 620 266 b 326 207 543 244 398 188 b 341 439 303 233 339 410 b 359 445 343 444 344 445 b 594 426 363 448 626 412 b 453 591 618 611 634 560 b 374 599 438 596 386 597 b 418 755 374 607 415 752 b 614 912 636 783 621 694 b 436 909 557 912 485 913 b 313 934 413 914 319 935 b 303 898 311 931 305 906 b 198 883 274 895 201 887 b 180 892 188 876 188 892 b 71 837 159 878 84 844 b 72 787 67 814 45 823 b 136 691 107 748 101 700 b 221 729 163 695 186 727 b 249 724 254 737 253 737 b 221 619 246 716 224 627 b 176 604 200 597 207 626 b 84 570 155 582 84 601 b 70 547 82 556 82 552 b 97 473 78 529 99 499 b 109 434 101 435 100 436 b 123 429 119 433 115 429 b 133 424 130 429 127 424 b 162 429 144 419 136 416 b 307 42 248 478 29 89 b 668 131 395 36 614 91 b 620 266 667 131 620 267 z "},"È":{"ha":726,"x_min":0,"x_max":0,"o":"m 620 266 b 326 207 543 244 398 188 b 341 439 303 233 339 410 b 359 445 343 444 344 445 b 594 426 363 448 626 412 b 453 591 618 611 634 560 b 374 599 438 596 386 597 b 418 755 374 607 415 752 b 614 912 636 783 621 694 b 436 909 557 912 485 913 b 313 934 413 914 319 935 b 303 898 311 931 305 906 b 198 883 274 895 201 887 b 180 892 188 876 188 892 b 71 837 159 878 84 844 b 72 787 67 814 45 823 b 136 691 107 748 101 700 b 221 729 163 695 186 727 b 249 724 254 737 253 737 b 221 619 246 716 224 627 b 176 604 200 597 207 626 b 84 570 155 582 84 601 b 70 547 82 556 82 552 b 97 473 78 529 99 499 b 109 434 101 435 100 436 b 123 429 119 433 115 429 b 133 424 130 429 127 424 b 162 429 144 419 136 416 b 307 42 248 478 29 89 b 668 131 395 36 614 91 b 620 266 667 131 620 267 z "},"É":{"ha":726,"x_min":0,"x_max":0,"o":"m 620 266 b 326 207 543 244 398 188 b 341 439 303 233 339 410 b 359 445 343 444 344 445 b 594 426 363 448 626 412 b 453 591 618 611 634 560 b 374 599 438 596 386 597 b 418 755 374 607 415 752 b 614 912 636 783 621 694 b 436 909 557 912 485 913 b 313 934 413 914 319 935 b 303 898 311 931 305 906 b 198 883 274 895 201 887 b 180 892 188 876 188 892 b 71 837 159 878 84 844 b 72 787 67 814 45 823 b 136 691 107 748 101 700 b 221 729 163 695 186 727 b 249 724 254 737 253 737 b 221 619 246 716 224 627 b 176 604 200 597 207 626 b 84 570 155 582 84 601 b 70 547 82 556 82 552 b 97 473 78 529 99 499 b 109 434 101 435 100 436 b 123 429 119 433 115 429 b 133 424 130 429 127 424 b 162 429 144 419 136 416 b 307 42 248 478 29 89 b 668 131 395 36 614 91 b 620 266 667 131 620 267 z "},"Ê":{"ha":726,"x_min":0,"x_max":0,"o":"m 620 266 b 326 207 543 244 398 188 b 341 439 303 233 339 410 b 359 445 343 444 344 445 b 594 426 363 448 626 412 b 453 591 618 611 634 560 b 374 599 438 596 386 597 b 418 755 374 607 415 752 b 614 912 636 783 621 694 b 436 909 557 912 485 913 b 313 934 413 914 319 935 b 303 898 311 931 305 906 b 198 883 274 895 201 887 b 180 892 188 876 188 892 b 71 837 159 878 84 844 b 72 787 67 814 45 823 b 136 691 107 748 101 700 b 221 729 163 695 186 727 b 249 724 254 737 253 737 b 221 619 246 716 224 627 b 176 604 200 597 207 626 b 84 570 155 582 84 601 b 70 547 82 556 82 552 b 97 473 78 529 99 499 b 109 434 101 435 100 436 b 123 429 119 433 115 429 b 133 424 130 429 127 424 b 162 429 144 419 136 416 b 307 42 248 478 29 89 b 668 131 395 36 614 91 b 620 266 667 131 620 267 z "},"Ë":{"ha":726,"x_min":0,"x_max":0,"o":"m 620 266 b 326 207 543 244 398 188 b 341 439 303 233 339 410 b 359 445 343 444 344 445 b 594 426 363 448 626 412 b 453 591 618 611 634 560 b 374 599 438 596 386 597 b 418 755 374 607 415 752 b 614 912 636 783 621 694 b 436 909 557 912 485 913 b 313 934 413 914 319 935 b 303 898 311 931 305 906 b 198 883 274 895 201 887 b 180 892 188 876 188 892 b 71 837 159 878 84 844 b 72 787 67 814 45 823 b 136 691 107 748 101 700 b 221 729 163 695 186 727 b 249 724 254 737 253 737 b 221 619 246 716 224 627 b 176 604 200 597 207 626 b 84 570 155 582 84 601 b 70 547 82 556 82 552 b 97 473 78 529 99 499 b 109 434 101 435 100 436 b 123 429 119 433 115 429 b 133 424 130 429 127 424 b 162 429 144 419 136 416 b 307 42 248 478 29 89 b 668 131 395 36 614 91 b 620 266 667 131 620 267 z "},"è":{"ha":726,"x_min":0,"x_max":0,"o":"m 620 266 b 326 207 543 244 398 188 b 341 439 303 233 339 410 b 359 445 343 444 344 445 b 594 426 363 448 626 412 b 453 591 618 611 634 560 b 374 599 438 596 386 597 b 418 755 374 607 415 752 b 614 912 636 783 621 694 b 436 909 557 912 485 913 b 313 934 413 914 319 935 b 303 898 311 931 305 906 b 198 883 274 895 201 887 b 180 892 188 876 188 892 b 71 837 159 878 84 844 b 72 787 67 814 45 823 b 136 691 107 748 101 700 b 221 729 163 695 186 727 b 249 724 254 737 253 737 b 221 619 246 716 224 627 b 176 604 200 597 207 626 b 84 570 155 582 84 601 b 70 547 82 556 82 552 b 97 473 78 529 99 499 b 109 434 101 435 100 436 b 123 429 119 433 115 429 b 133 424 130 429 127 424 b 162 429 144 419 136 416 b 307 42 248 478 29 89 b 668 131 395 36 614 91 b 620 266 667 131 620 267 z "},"é":{"ha":726,"x_min":0,"x_max":0,"o":"m 620 266 b 326 207 543 244 398 188 b 341 439 303 233 339 410 b 359 445 343 444 344 445 b 594 426 363 448 626 412 b 453 591 618 611 634 560 b 374 599 438 596 386 597 b 418 755 374 607 415 752 b 614 912 636 783 621 694 b 436 909 557 912 485 913 b 313 934 413 914 319 935 b 303 898 311 931 305 906 b 198 883 274 895 201 887 b 180 892 188 876 188 892 b 71 837 159 878 84 844 b 72 787 67 814 45 823 b 136 691 107 748 101 700 b 221 729 163 695 186 727 b 249 724 254 737 253 737 b 221 619 246 716 224 627 b 176 604 200 597 207 626 b 84 570 155 582 84 601 b 70 547 82 556 82 552 b 97 473 78 529 99 499 b 109 434 101 435 100 436 b 123 429 119 433 115 429 b 133 424 130 429 127 424 b 162 429 144 419 136 416 b 307 42 248 478 29 89 b 668 131 395 36 614 91 b 620 266 667 131 620 267 z "},"ê":{"ha":726,"x_min":0,"x_max":0,"o":"m 620 266 b 326 207 543 244 398 188 b 341 439 303 233 339 410 b 359 445 343 444 344 445 b 594 426 363 448 626 412 b 453 591 618 611 634 560 b 374 599 438 596 386 597 b 418 755 374 607 415 752 b 614 912 636 783 621 694 b 436 909 557 912 485 913 b 313 934 413 914 319 935 b 303 898 311 931 305 906 b 198 883 274 895 201 887 b 180 892 188 876 188 892 b 71 837 159 878 84 844 b 72 787 67 814 45 823 b 136 691 107 748 101 700 b 221 729 163 695 186 727 b 249 724 254 737 253 737 b 221 619 246 716 224 627 b 176 604 200 597 207 626 b 84 570 155 582 84 601 b 70 547 82 556 82 552 b 97 473 78 529 99 499 b 109 434 101 435 100 436 b 123 429 119 433 115 429 b 133 424 130 429 127 424 b 162 429 144 419 136 416 b 307 42 248 478 29 89 b 668 131 395 36 614 91 b 620 266 667 131 620 267 z "},"ë":{"ha":726,"x_min":0,"x_max":0,"o":"m 620 266 b 326 207 543 244 398 188 b 341 439 303 233 339 410 b 359 445 343 444 344 445 b 594 426 363 448 626 412 b 453 591 618 611 634 560 b 374 599 438 596 386 597 b 418 755 374 607 415 752 b 614 912 636 783 621 694 b 436 909 557 912 485 913 b 313 934 413 914 319 935 b 303 898 311 931 305 906 b 198 883 274 895 201 887 b 180 892 188 876 188 892 b 71 837 159 878 84 844 b 72 787 67 814 45 823 b 136 691 107 748 101 700 b 221 729 163 695 186 727 b 249 724 254 737 253 737 b 221 619 246 716 224 627 b 176 604 200 597 207 626 b 84 570 155 582 84 601 b 70 547 82 556 82 552 b 97 473 78 529 99 499 b 109 434 101 435 100 436 b 123 429 119 433 115 429 b 133 424 130 429 127 424 b 162 429 144 419 136 416 b 307 42 248 478 29 89 b 668 131 395 36 614 91 b 620 266 667 131 620 267 z "},"F":{"ha":596,"x_min":0,"x_max":0,"o":"m 651 991 b 186 912 622 988 268 924 b 173 926 183 915 176 923 b 125 892 158 915 146 897 b 76 850 108 885 66 876 b 63 828 82 842 69 834 b 111 754 85 802 103 783 b 151 722 118 717 130 738 b 185 738 157 715 158 715 b 247 763 202 758 228 760 b 235 587 254 750 235 593 b 183 586 234 585 184 585 b 152 579 169 582 168 593 b 107 580 135 563 126 574 b 97 570 105 576 100 570 b 82 546 91 566 94 550 b 52 499 58 529 56 516 b 68 477 55 496 64 483 b 62 437 66 466 47 439 b 66 426 69 435 64 428 b 104 418 67 426 96 420 b 129 391 111 416 121 384 b 160 402 139 383 149 393 b 203 398 181 394 189 390 b 223 428 212 395 211 434 b 196 31 223 413 196 47 b 271 -12 191 -33 204 2 b 363 244 389 -7 325 -91 b 378 447 371 355 378 446 b 550 483 409 458 546 460 b 389 602 519 643 569 629 b 421 763 397 623 392 786 b 424 798 421 771 416 800 b 590 828 429 799 491 810 b 679 847 670 841 679 843 b 651 991 680 840 655 1014 z "},"f":{"ha":596,"x_min":0,"x_max":0,"o":"m 651 991 b 186 912 622 988 268 924 b 173 926 183 915 176 923 b 125 892 158 915 146 897 b 76 850 108 885 66 876 b 63 828 82 842 69 834 b 111 754 85 802 103 783 b 151 722 118 717 130 738 b 185 738 157 715 158 715 b 247 763 202 758 228 760 b 235 587 254 750 235 593 b 183 586 234 585 184 585 b 152 579 169 582 168 593 b 107 580 135 563 126 574 b 97 570 105 576 100 570 b 82 546 91 566 94 550 b 52 499 58 529 56 516 b 68 477 55 496 64 483 b 62 437 66 466 47 439 b 66 426 69 435 64 428 b 104 418 67 426 96 420 b 129 391 111 416 121 384 b 160 402 139 383 149 393 b 203 398 181 394 189 390 b 223 428 212 395 211 434 b 196 31 223 413 196 47 b 271 -12 191 -33 204 2 b 363 244 389 -7 325 -91 b 378 447 371 355 378 446 b 550 483 409 458 546 460 b 389 602 519 643 569 629 b 421 763 397 623 392 786 b 424 798 421 771 416 800 b 590 828 429 799 491 810 b 679 847 670 841 679 843 b 651 991 680 840 655 1014 z "},"G":{"ha":849,"x_min":0,"x_max":0,"o":"m 832 575 b 355 478 715 562 462 496 b 311 487 341 481 314 509 b 286 477 310 472 289 484 b 260 447 278 469 271 456 b 272 410 263 438 269 419 b 260 362 268 396 240 368 b 267 347 268 358 268 358 b 271 334 266 336 266 335 b 296 317 279 329 282 317 b 344 320 306 304 325 314 b 382 301 354 315 373 306 l 386 309 b 411 319 388 323 408 310 b 472 343 426 328 453 343 b 153 305 398 198 182 77 b 576 734 125 500 350 955 b 619 699 598 715 617 699 b 715 807 622 700 713 801 b 674 855 714 813 678 849 b 214 21 241 1299 -327 164 b 660 388 426 -9 597 197 b 832 575 876 450 875 364 z "},"g":{"ha":849,"x_min":0,"x_max":0,"o":"m 832 575 b 355 478 715 562 462 496 b 311 487 341 481 314 509 b 286 477 310 472 289 484 b 260 447 278 469 271 456 b 272 410 263 438 269 419 b 260 362 268 396 240 368 b 267 347 268 358 268 358 b 271 334 266 336 266 335 b 296 317 279 329 282 317 b 344 320 306 304 325 314 b 382 301 354 315 373 306 l 386 309 b 411 319 388 323 408 310 b 472 343 426 328 453 343 b 153 305 398 198 182 77 b 576 734 125 500 350 955 b 619 699 598 715 617 699 b 715 807 622 700 713 801 b 674 855 714 813 678 849 b 214 21 241 1299 -327 164 b 660 388 426 -9 597 197 b 832 575 876 450 875 364 z "},"H":{"ha":746,"x_min":0,"x_max":0,"o":"m 704 440 b 744 453 714 443 734 450 b 683 815 714 561 669 706 b 678 849 690 832 691 842 b 656 879 665 855 668 872 b 577 881 646 886 596 863 b 537 869 549 889 554 898 b 512 849 528 853 522 859 b 508 777 518 821 523 810 b 491 664 493 732 511 758 b 456 551 475 613 490 557 b 254 532 452 549 258 531 b 266 672 252 534 256 576 b 280 765 276 768 275 765 b 291 861 289 751 289 843 b 310 901 295 868 309 899 b 288 938 293 904 297 934 b 178 963 207 942 220 945 b 159 946 174 959 169 940 b 148 945 155 947 150 946 b 116 831 141 915 133 855 b 121 741 143 822 122 800 b 100 523 110 637 99 548 l 90 533 b 57 524 79 520 72 515 b 41 508 53 517 52 507 b 32 502 34 508 33 508 b 25 495 30 496 29 495 b 15 484 18 496 18 485 b -1 452 10 484 3 458 b -1 431 -5 447 9 436 b 7 412 -11 423 0 418 b 11 376 -12 382 13 397 b 21 355 6 361 22 368 b 30 344 20 345 30 352 b 45 326 35 337 40 335 b 69 82 70 286 88 148 b 69 56 65 65 55 60 b 83 24 80 51 75 34 b 172 20 120 24 137 33 b 214 29 219 0 189 23 b 240 127 241 19 227 115 b 246 148 243 138 246 148 b 240 375 210 182 240 281 b 431 27 562 409 426 448 b 578 16 416 23 586 13 b 588 154 579 19 580 28 b 608 404 596 268 606 397 b 698 411 600 414 694 408 b 704 440 708 410 703 431 z "},"h":{"ha":746,"x_min":0,"x_max":0,"o":"m 704 440 b 744 453 714 443 734 450 b 683 815 714 561 669 706 b 678 849 690 832 691 842 b 656 879 665 855 668 872 b 577 881 646 886 596 863 b 537 869 549 889 554 898 b 512 849 528 853 522 859 b 508 777 518 821 523 810 b 491 664 493 732 511 758 b 456 551 475 613 490 557 b 254 532 452 549 258 531 b 266 672 252 534 256 576 b 280 765 276 768 275 765 b 291 861 289 751 289 843 b 310 901 295 868 309 899 b 288 938 293 904 297 934 b 178 963 207 942 220 945 b 159 946 174 959 169 940 b 148 945 155 947 150 946 b 116 831 141 915 133 855 b 121 741 143 822 122 800 b 100 523 110 637 99 548 l 90 533 b 57 524 79 520 72 515 b 41 508 53 517 52 507 b 32 502 34 508 33 508 b 25 495 30 496 29 495 b 15 484 18 496 18 485 b -1 452 10 484 3 458 b -1 431 -5 447 9 436 b 7 412 -11 423 0 418 b 11 376 -12 382 13 397 b 21 355 6 361 22 368 b 30 344 20 345 30 352 b 45 326 35 337 40 335 b 69 82 70 286 88 148 b 69 56 65 65 55 60 b 83 24 80 51 75 34 b 172 20 120 24 137 33 b 214 29 219 0 189 23 b 240 127 241 19 227 115 b 246 148 243 138 246 148 b 240 375 210 182 240 281 b 431 27 562 409 426 448 b 578 16 416 23 586 13 b 588 154 579 19 580 28 b 608 404 596 268 606 397 b 698 411 600 414 694 408 b 704 440 708 410 703 431 z "},"I":{"ha":274,"x_min":0,"x_max":0,"o":"m 271 791 b 271 820 284 794 274 801 b 269 868 266 832 265 855 b 270 908 276 908 276 906 b 242 933 257 920 246 916 b 192 922 240 934 202 924 b 133 934 177 925 148 931 b 100 898 121 923 115 902 b 94 796 111 868 112 816 b 91 743 82 801 91 755 b 68 694 86 731 74 706 b 20 268 110 679 22 308 b 6 204 13 237 7 209 b -13 159 -4 178 -33 206 b -31 138 -17 154 -26 143 b -19 125 -28 135 -22 129 b 12 82 -36 94 -16 91 b 57 58 23 47 21 43 l 66 49 b 102 49 81 29 86 55 b 132 83 116 39 123 72 b 154 118 162 92 167 87 b 199 173 168 135 190 158 b 169 199 192 179 174 196 b 190 344 156 210 190 320 b 211 350 197 344 211 341 b 249 672 219 416 241 607 b 277 688 245 680 279 682 b 264 774 276 698 263 763 b 270 791 264 789 264 790 z "},"i":{"ha":274,"x_min":0,"x_max":0,"o":"m 271 791 b 271 820 284 794 274 801 b 269 868 266 832 265 855 b 270 908 276 908 276 906 b 242 933 257 920 246 916 b 192 922 240 934 202 924 b 133 934 177 925 148 931 b 100 898 121 923 115 902 b 94 796 111 868 112 816 b 91 743 82 801 91 755 b 68 694 86 731 74 706 b 20 268 110 679 22 308 b 6 204 13 237 7 209 b -13 159 -4 178 -33 206 b -31 138 -17 154 -26 143 b -19 125 -28 135 -22 129 b 12 82 -36 94 -16 91 b 57 58 23 47 21 43 l 66 49 b 102 49 81 29 86 55 b 132 83 116 39 123 72 b 154 118 162 92 167 87 b 199 173 168 135 190 158 b 169 199 192 179 174 196 b 190 344 156 210 190 320 b 211 350 197 344 211 341 b 249 672 219 416 241 607 b 277 688 245 680 279 682 b 264 774 276 698 263 763 b 270 791 264 789 264 790 z "},"Ì":{"ha":274,"x_min":0,"x_max":0,"o":"m 271 791 b 271 820 284 794 274 801 b 269 868 266 832 265 855 b 270 908 276 908 276 906 b 242 933 257 920 246 916 b 192 922 240 934 202 924 b 133 934 177 925 148 931 b 100 898 121 923 115 902 b 94 796 111 868 112 816 b 91 743 82 801 91 755 b 68 694 86 731 74 706 b 20 268 110 679 22 308 b 6 204 13 237 7 209 b -13 159 -4 178 -33 206 b -31 138 -17 154 -26 143 b -19 125 -28 135 -22 129 b 12 82 -36 94 -16 91 b 57 58 23 47 21 43 l 66 49 b 102 49 81 29 86 55 b 132 83 116 39 123 72 b 154 118 162 92 167 87 b 199 173 168 135 190 158 b 169 199 192 179 174 196 b 190 344 156 210 190 320 b 211 350 197 344 211 341 b 249 672 219 416 241 607 b 277 688 245 680 279 682 b 264 774 276 698 263 763 b 270 791 264 789 264 790 z "},"Í":{"ha":274,"x_min":0,"x_max":0,"o":"m 271 791 b 271 820 284 794 274 801 b 269 868 266 832 265 855 b 270 908 276 908 276 906 b 242 933 257 920 246 916 b 192 922 240 934 202 924 b 133 934 177 925 148 931 b 100 898 121 923 115 902 b 94 796 111 868 112 816 b 91 743 82 801 91 755 b 68 694 86 731 74 706 b 20 268 110 679 22 308 b 6 204 13 237 7 209 b -13 159 -4 178 -33 206 b -31 138 -17 154 -26 143 b -19 125 -28 135 -22 129 b 12 82 -36 94 -16 91 b 57 58 23 47 21 43 l 66 49 b 102 49 81 29 86 55 b 132 83 116 39 123 72 b 154 118 162 92 167 87 b 199 173 168 135 190 158 b 169 199 192 179 174 196 b 190 344 156 210 190 320 b 211 350 197 344 211 341 b 249 672 219 416 241 607 b 277 688 245 680 279 682 b 264 774 276 698 263 763 b 270 791 264 789 264 790 z "},"Î":{"ha":274,"x_min":0,"x_max":0,"o":"m 271 791 b 271 820 284 794 274 801 b 269 868 266 832 265 855 b 270 908 276 908 276 906 b 242 933 257 920 246 916 b 192 922 240 934 202 924 b 133 934 177 925 148 931 b 100 898 121 923 115 902 b 94 796 111 868 112 816 b 91 743 82 801 91 755 b 68 694 86 731 74 706 b 20 268 110 679 22 308 b 6 204 13 237 7 209 b -13 159 -4 178 -33 206 b -31 138 -17 154 -26 143 b -19 125 -28 135 -22 129 b 12 82 -36 94 -16 91 b 57 58 23 47 21 43 l 66 49 b 102 49 81 29 86 55 b 132 83 116 39 123 72 b 154 118 162 92 167 87 b 199 173 168 135 190 158 b 169 199 192 179 174 196 b 190 344 156 210 190 320 b 211 350 197 344 211 341 b 249 672 219 416 241 607 b 277 688 245 680 279 682 b 264 774 276 698 263 763 b 270 791 264 789 264 790 z "},"Ï":{"ha":274,"x_min":0,"x_max":0,"o":"m 271 791 b 271 820 284 794 274 801 b 269 868 266 832 265 855 b 270 908 276 908 276 906 b 242 933 257 920 246 916 b 192 922 240 934 202 924 b 133 934 177 925 148 931 b 100 898 121 923 115 902 b 94 796 111 868 112 816 b 91 743 82 801 91 755 b 68 694 86 731 74 706 b 20 268 110 679 22 308 b 6 204 13 237 7 209 b -13 159 -4 178 -33 206 b -31 138 -17 154 -26 143 b -19 125 -28 135 -22 129 b 12 82 -36 94 -16 91 b 57 58 23 47 21 43 l 66 49 b 102 49 81 29 86 55 b 132 83 116 39 123 72 b 154 118 162 92 167 87 b 199 173 168 135 190 158 b 169 199 192 179 174 196 b 190 344 156 210 190 320 b 211 350 197 344 211 341 b 249 672 219 416 241 607 b 277 688 245 680 279 682 b 264 774 276 698 263 763 b 270 791 264 789 264 790 z "},"ì":{"ha":274,"x_min":0,"x_max":0,"o":"m 271 791 b 271 820 284 794 274 801 b 269 868 266 832 265 855 b 270 908 276 908 276 906 b 242 933 257 920 246 916 b 192 922 240 934 202 924 b 133 934 177 925 148 931 b 100 898 121 923 115 902 b 94 796 111 868 112 816 b 91 743 82 801 91 755 b 68 694 86 731 74 706 b 20 268 110 679 22 308 b 6 204 13 237 7 209 b -13 159 -4 178 -33 206 b -31 138 -17 154 -26 143 b -19 125 -28 135 -22 129 b 12 82 -36 94 -16 91 b 57 58 23 47 21 43 l 66 49 b 102 49 81 29 86 55 b 132 83 116 39 123 72 b 154 118 162 92 167 87 b 199 173 168 135 190 158 b 169 199 192 179 174 196 b 190 344 156 210 190 320 b 211 350 197 344 211 341 b 249 672 219 416 241 607 b 277 688 245 680 279 682 b 264 774 276 698 263 763 b 270 791 264 789 264 790 z "},"í":{"ha":274,"x_min":0,"x_max":0,"o":"m 271 791 b 271 820 284 794 274 801 b 269 868 266 832 265 855 b 270 908 276 908 276 906 b 242 933 257 920 246 916 b 192 922 240 934 202 924 b 133 934 177 925 148 931 b 100 898 121 923 115 902 b 94 796 111 868 112 816 b 91 743 82 801 91 755 b 68 694 86 731 74 706 b 20 268 110 679 22 308 b 6 204 13 237 7 209 b -13 159 -4 178 -33 206 b -31 138 -17 154 -26 143 b -19 125 -28 135 -22 129 b 12 82 -36 94 -16 91 b 57 58 23 47 21 43 l 66 49 b 102 49 81 29 86 55 b 132 83 116 39 123 72 b 154 118 162 92 167 87 b 199 173 168 135 190 158 b 169 199 192 179 174 196 b 190 344 156 210 190 320 b 211 350 197 344 211 341 b 249 672 219 416 241 607 b 277 688 245 680 279 682 b 264 774 276 698 263 763 b 270 791 264 789 264 790 z "},"î":{"ha":274,"x_min":0,"x_max":0,"o":"m 271 791 b 271 820 284 794 274 801 b 269 868 266 832 265 855 b 270 908 276 908 276 906 b 242 933 257 920 246 916 b 192 922 240 934 202 924 b 133 934 177 925 148 931 b 100 898 121 923 115 902 b 94 796 111 868 112 816 b 91 743 82 801 91 755 b 68 694 86 731 74 706 b 20 268 110 679 22 308 b 6 204 13 237 7 209 b -13 159 -4 178 -33 206 b -31 138 -17 154 -26 143 b -19 125 -28 135 -22 129 b 12 82 -36 94 -16 91 b 57 58 23 47 21 43 l 66 49 b 102 49 81 29 86 55 b 132 83 116 39 123 72 b 154 118 162 92 167 87 b 199 173 168 135 190 158 b 169 199 192 179 174 196 b 190 344 156 210 190 320 b 211 350 197 344 211 341 b 249 672 219 416 241 607 b 277 688 245 680 279 682 b 264 774 276 698 263 763 b 270 791 264 789 264 790 z "},"ï":{"ha":274,"x_min":0,"x_max":0,"o":"m 271 791 b 271 820 284 794 274 801 b 269 868 266 832 265 855 b 270 908 276 908 276 906 b 242 933 257 920 246 916 b 192 922 240 934 202 924 b 133 934 177 925 148 931 b 100 898 121 923 115 902 b 94 796 111 868 112 816 b 91 743 82 801 91 755 b 68 694 86 731 74 706 b 20 268 110 679 22 308 b 6 204 13 237 7 209 b -13 159 -4 178 -33 206 b -31 138 -17 154 -26 143 b -19 125 -28 135 -22 129 b 12 82 -36 94 -16 91 b 57 58 23 47 21 43 l 66 49 b 102 49 81 29 86 55 b 132 83 116 39 123 72 b 154 118 162 92 167 87 b 199 173 168 135 190 158 b 169 199 192 179 174 196 b 190 344 156 210 190 320 b 211 350 197 344 211 341 b 249 672 219 416 241 607 b 277 688 245 680 279 682 b 264 774 276 698 263 763 b 270 791 264 789 264 790 z "},"J":{"ha":617,"x_min":0,"x_max":0,"o":"m 671 888 b 659 911 668 894 662 905 b 660 949 687 933 654 928 b 657 962 662 956 662 957 b 637 989 649 973 647 981 b 597 1014 626 1000 605 998 b 580 1004 593 1011 584 1006 b 561 1020 575 1008 566 1016 b 549 1005 558 1016 552 1009 b 526 1008 542 1008 526 1017 b 440 973 499 1000 480 987 b 225 920 385 957 276 931 b 199 923 213 909 211 917 b 167 898 190 896 172 928 b 126 851 163 876 134 868 b 126 829 128 841 117 839 b 120 800 137 818 125 812 b 131 775 134 791 132 787 b 180 758 134 774 178 761 b 209 724 187 751 198 723 b 241 720 223 726 226 733 b 271 733 248 735 255 738 b 281 768 273 742 279 760 b 471 823 319 784 455 819 b 426 537 454 722 450 713 b 342 127 390 308 391 256 b 326 122 338 121 337 121 b 130 248 264 131 136 212 b 183 417 113 243 182 410 b 47 474 181 419 48 475 b -31 287 21 421 -24 345 b 332 -45 -66 103 198 -15 b 576 511 561 -43 523 288 b 654 858 619 792 610 791 b 671 888 667 862 644 880 z "},"j":{"ha":617,"x_min":0,"x_max":0,"o":"m 671 888 b 659 911 668 894 662 905 b 660 949 687 933 654 928 b 657 962 662 956 662 957 b 637 989 649 973 647 981 b 597 1014 626 1000 605 998 b 580 1004 593 1011 584 1006 b 561 1020 575 1008 566 1016 b 549 1005 558 1016 552 1009 b 526 1008 542 1008 526 1017 b 440 973 499 1000 480 987 b 225 920 385 957 276 931 b 199 923 213 909 211 917 b 167 898 190 896 172 928 b 126 851 163 876 134 868 b 126 829 128 841 117 839 b 120 800 137 818 125 812 b 131 775 134 791 132 787 b 180 758 134 774 178 761 b 209 724 187 751 198 723 b 241 720 223 726 226 733 b 271 733 248 735 255 738 b 281 768 273 742 279 760 b 471 823 319 784 455 819 b 426 537 454 722 450 713 b 342 127 390 308 391 256 b 326 122 338 121 337 121 b 130 248 264 131 136 212 b 183 417 113 243 182 410 b 47 474 181 419 48 475 b -31 287 21 421 -24 345 b 332 -45 -66 103 198 -15 b 576 511 561 -43 523 288 b 654 858 619 792 610 791 b 671 888 667 862 644 880 z "},"K":{"ha":819,"x_min":0,"x_max":0,"o":"m 712 126 b 350 507 570 255 501 448 b 691 816 393 565 612 740 b 602 935 707 834 619 905 b 237 616 559 906 295 667 b 270 886 233 650 269 837 b 279 933 296 906 305 906 b 267 992 301 980 273 954 b 207 1021 235 986 227 994 b 155 1015 187 1005 180 1002 b 120 988 141 1008 136 987 b 119 952 120 981 122 956 b 110 907 101 934 83 932 b 68 464 97 774 84 614 b 40 422 68 442 56 430 b 35 405 30 419 30 418 b 24 363 45 393 23 374 b 58 331 27 347 40 339 b 41 31 53 278 45 92 b 99 -41 40 -61 17 -29 b 186 -46 143 -44 162 -45 b 187 -38 186 -46 187 -38 b 215 333 194 -36 202 336 b 604 20 338 454 504 84 b 649 -23 627 -4 648 -23 b 755 77 653 -23 754 72 b 712 126 756 78 736 101 z "},"k":{"ha":819,"x_min":0,"x_max":0,"o":"m 712 126 b 350 507 570 255 501 448 b 691 816 393 565 612 740 b 602 935 707 834 619 905 b 237 616 559 906 295 667 b 270 886 233 650 269 837 b 279 933 296 906 305 906 b 267 992 301 980 273 954 b 207 1021 235 986 227 994 b 155 1015 187 1005 180 1002 b 120 988 141 1008 136 987 b 119 952 120 981 122 956 b 110 907 101 934 83 932 b 68 464 97 774 84 614 b 40 422 68 442 56 430 b 35 405 30 419 30 418 b 24 363 45 393 23 374 b 58 331 27 347 40 339 b 41 31 53 278 45 92 b 99 -41 40 -61 17 -29 b 186 -46 143 -44 162 -45 b 187 -38 186 -46 187 -38 b 215 333 194 -36 202 336 b 604 20 338 454 504 84 b 649 -23 627 -4 648 -23 b 755 77 653 -23 754 72 b 712 126 756 78 736 101 z "},"L":{"ha":653,"x_min":0,"x_max":0,"o":"m 601 173 b 590 320 616 179 586 315 b 261 272 541 324 331 295 b 303 851 270 458 259 683 b 304 900 322 844 302 893 b 322 937 304 906 318 929 b 308 947 319 940 312 945 b 302 968 301 946 311 971 b 233 987 262 984 321 1009 b 188 998 218 991 193 1022 b 158 981 184 980 162 998 b 147 972 155 975 152 973 b 147 926 133 975 145 939 b 140 873 140 904 110 881 b 96 212 125 666 112 399 b 92 204 99 208 99 208 b -19 158 58 186 -1 188 b -42 143 -33 165 -37 154 b -51 136 -42 138 -52 141 b -65 123 -55 131 -56 125 b -71 112 -72 122 -72 122 b -80 67 -68 97 -80 83 b -76 40 -78 53 -88 47 b -72 29 -70 37 -70 36 b -69 21 -73 23 -73 22 b -59 5 -63 20 -66 5 b -54 -1 -55 5 -54 3 b -42 -9 -55 -9 -44 -5 b 13 -18 -41 -26 -4 -17 l 24 -26 b 66 -17 45 -46 42 -10 b 86 -9 88 -22 72 -10 b 159 23 102 2 138 17 b 152 63 161 24 150 61 b 601 173 242 118 465 164 z "},"l":{"ha":653,"x_min":0,"x_max":0,"o":"m 601 173 b 590 320 616 179 586 315 b 261 272 541 324 331 295 b 303 851 270 458 259 683 b 304 900 322 844 302 893 b 322 937 304 906 318 929 b 308 947 319 940 312 945 b 302 968 301 946 311 971 b 233 987 262 984 321 1009 b 188 998 218 991 193 1022 b 158 981 184 980 162 998 b 147 972 155 975 152 973 b 147 926 133 975 145 939 b 140 873 140 904 110 881 b 96 212 125 666 112 399 b 92 204 99 208 99 208 b -19 158 58 186 -1 188 b -42 143 -33 165 -37 154 b -51 136 -42 138 -52 141 b -65 123 -55 131 -56 125 b -71 112 -72 122 -72 122 b -80 67 -68 97 -80 83 b -76 40 -78 53 -88 47 b -72 29 -70 37 -70 36 b -69 21 -73 23 -73 22 b -59 5 -63 20 -66 5 b -54 -1 -55 5 -54 3 b -42 -9 -55 -9 -44 -5 b 13 -18 -41 -26 -4 -17 l 24 -26 b 66 -17 45 -46 42 -10 b 86 -9 88 -22 72 -10 b 159 23 102 2 138 17 b 152 63 161 24 150 61 b 601 173 242 118 465 164 z "},"M":{"ha":844,"x_min":0,"x_max":0,"o":"m 837 864 b 830 914 836 874 838 918 b 823 920 827 915 824 917 b 817 924 822 922 820 924 b 807 936 810 923 814 937 b 798 940 801 936 805 942 b 779 949 791 937 787 949 b 705 936 750 960 736 928 b 693 930 695 939 695 939 b 668 908 694 916 669 920 b 421 609 599 817 487 712 b 399 580 410 592 400 579 b 364 689 397 584 366 680 b 352 767 361 718 357 743 b 348 776 355 772 354 773 b 342 787 342 779 341 780 b 326 811 348 801 322 796 b 306 827 329 827 306 812 b 296 835 304 833 303 834 b 276 843 286 836 285 846 b 230 845 260 847 247 850 b 190 826 206 843 207 830 b 167 807 171 826 189 808 b 95 603 125 743 138 716 b -34 198 32 436 15 339 b -41 187 -38 198 -35 186 b -49 176 -48 188 -43 176 b -51 171 -52 176 -52 175 b -51 140 -53 162 -59 165 b -47 63 -41 122 -55 70 b -39 52 -42 59 -46 52 b -34 46 -36 52 -34 51 b -27 36 -35 39 -28 43 b -16 24 -23 30 -18 32 b 82 44 40 32 73 51 b 122 63 107 41 105 54 b 243 566 97 197 194 404 b 291 393 271 498 272 436 b 301 373 305 384 281 379 b 319 352 317 370 302 352 b 338 333 336 353 327 335 b 372 321 352 333 360 319 b 391 319 382 323 384 315 b 408 321 397 325 402 313 b 430 328 413 328 427 318 b 443 335 432 334 434 335 b 454 344 454 336 454 336 b 475 368 449 360 481 349 b 490 395 468 384 500 380 b 568 552 511 452 503 466 b 644 646 592 585 643 647 b 594 35 628 494 584 191 b 742 30 596 33 740 28 b 745 95 742 31 744 60 b 857 839 759 365 799 786 b 837 864 852 845 842 858 z "},"m":{"ha":844,"x_min":0,"x_max":0,"o":"m 837 864 b 830 914 836 874 838 918 b 823 920 827 915 824 917 b 817 924 822 922 820 924 b 807 936 810 923 814 937 b 798 940 801 936 805 942 b 779 949 791 937 787 949 b 705 936 750 960 736 928 b 693 930 695 939 695 939 b 668 908 694 916 669 920 b 421 609 599 817 487 712 b 399 580 410 592 400 579 b 364 689 397 584 366 680 b 352 767 361 718 357 743 b 348 776 355 772 354 773 b 342 787 342 779 341 780 b 326 811 348 801 322 796 b 306 827 329 827 306 812 b 296 835 304 833 303 834 b 276 843 286 836 285 846 b 230 845 260 847 247 850 b 190 826 206 843 207 830 b 167 807 171 826 189 808 b 95 603 125 743 138 716 b -34 198 32 436 15 339 b -41 187 -38 198 -35 186 b -49 176 -48 188 -43 176 b -51 171 -52 176 -52 175 b -51 140 -53 162 -59 165 b -47 63 -41 122 -55 70 b -39 52 -42 59 -46 52 b -34 46 -36 52 -34 51 b -27 36 -35 39 -28 43 b -16 24 -23 30 -18 32 b 82 44 40 32 73 51 b 122 63 107 41 105 54 b 243 566 97 197 194 404 b 291 393 271 498 272 436 b 301 373 305 384 281 379 b 319 352 317 370 302 352 b 338 333 336 353 327 335 b 372 321 352 333 360 319 b 391 319 382 323 384 315 b 408 321 397 325 402 313 b 430 328 413 328 427 318 b 443 335 432 334 434 335 b 454 344 454 336 454 336 b 475 368 449 360 481 349 b 490 395 468 384 500 380 b 568 552 511 452 503 466 b 644 646 592 585 643 647 b 594 35 628 494 584 191 b 742 30 596 33 740 28 b 745 95 742 31 744 60 b 857 839 759 365 799 786 b 837 864 852 845 842 858 z "},"N":{"ha":747,"x_min":0,"x_max":0,"o":"m 853 985 b 716 1040 836 999 750 1024 b 424 283 711 1040 493 446 b 360 607 420 295 368 557 b 332 794 349 666 359 756 b 327 802 333 798 332 799 b 314 817 316 803 324 818 b 302 829 306 816 308 829 b 290 837 296 828 297 839 b 226 851 273 844 248 855 b 211 847 224 847 212 853 b 194 841 209 841 195 850 b 176 831 193 833 176 840 b 162 823 177 824 163 829 b 151 813 163 818 151 818 b 143 803 151 808 141 809 b 141 799 144 801 144 799 b 131 788 137 800 134 788 b 108 737 122 770 117 759 b -45 -55 25 517 -54 148 b 19 -61 -43 -56 -16 -59 b 102 -61 103 -66 101 -66 b 215 550 111 105 154 447 b 333 7 227 455 307 131 b 370 -27 347 1 366 -7 b 379 -38 372 -35 374 -37 b 404 -48 387 -42 396 -44 b 440 -26 405 -56 433 -30 b 499 -3 500 -49 462 -16 b 513 25 527 0 501 14 b 507 61 527 36 517 47 b 853 985 542 165 883 1052 z "},"n":{"ha":747,"x_min":0,"x_max":0,"o":"m 853 985 b 716 1040 836 999 750 1024 b 424 283 711 1040 493 446 b 360 607 420 295 368 557 b 332 794 349 666 359 756 b 327 802 333 798 332 799 b 314 817 316 803 324 818 b 302 829 306 816 308 829 b 290 837 296 828 297 839 b 226 851 273 844 248 855 b 211 847 224 847 212 853 b 194 841 209 841 195 850 b 176 831 193 833 176 840 b 162 823 177 824 163 829 b 151 813 163 818 151 818 b 143 803 151 808 141 809 b 141 799 144 801 144 799 b 131 788 137 800 134 788 b 108 737 122 770 117 759 b -45 -55 25 517 -54 148 b 19 -61 -43 -56 -16 -59 b 102 -61 103 -66 101 -66 b 215 550 111 105 154 447 b 333 7 227 455 307 131 b 370 -27 347 1 366 -7 b 379 -38 372 -35 374 -37 b 404 -48 387 -42 396 -44 b 440 -26 405 -56 433 -30 b 499 -3 500 -49 462 -16 b 513 25 527 0 501 14 b 507 61 527 36 517 47 b 853 985 542 165 883 1052 z "},"Ñ":{"ha":747,"x_min":0,"x_max":0,"o":"m 853 985 b 716 1040 836 999 750 1024 b 424 283 711 1040 493 446 b 360 607 420 295 368 557 b 332 794 349 666 359 756 b 327 802 333 798 332 799 b 314 817 316 803 324 818 b 302 829 306 816 308 829 b 290 837 296 828 297 839 b 226 851 273 844 248 855 b 211 847 224 847 212 853 b 194 841 209 841 195 850 b 176 831 193 833 176 840 b 162 823 177 824 163 829 b 151 813 163 818 151 818 b 143 803 151 808 141 809 b 141 799 144 801 144 799 b 131 788 137 800 134 788 b 108 737 122 770 117 759 b -45 -55 25 517 -54 148 b 19 -61 -43 -56 -16 -59 b 102 -61 103 -66 101 -66 b 215 550 111 105 154 447 b 333 7 227 455 307 131 b 370 -27 347 1 366 -7 b 379 -38 372 -35 374 -37 b 404 -48 387 -42 396 -44 b 440 -26 405 -56 433 -30 b 499 -3 500 -49 462 -16 b 513 25 527 0 501 14 b 507 61 527 36 517 47 b 853 985 542 165 883 1052 z "},"ñ":{"ha":747,"x_min":0,"x_max":0,"o":"m 853 985 b 716 1040 836 999 750 1024 b 424 283 711 1040 493 446 b 360 607 420 295 368 557 b 332 794 349 666 359 756 b 327 802 333 798 332 799 b 314 817 316 803 324 818 b 302 829 306 816 308 829 b 290 837 296 828 297 839 b 226 851 273 844 248 855 b 211 847 224 847 212 853 b 194 841 209 841 195 850 b 176 831 193 833 176 840 b 162 823 177 824 163 829 b 151 813 163 818 151 818 b 143 803 151 808 141 809 b 141 799 144 801 144 799 b 131 788 137 800 134 788 b 108 737 122 770 117 759 b -45 -55 25 517 -54 148 b 19 -61 -43 -56 -16 -59 b 102 -61 103 -66 101 -66 b 215 550 111 105 154 447 b 333 7 227 455 307 131 b 370 -27 347 1 366 -7 b 379 -38 372 -35 374 -37 b 404 -48 387 -42 396 -44 b 440 -26 405 -56 433 -30 b 499 -3 500 -49 462 -16 b 513 25 527 0 501 14 b 507 61 527 36 517 47 b 853 985 542 165 883 1052 z "},"O":{"ha":688,"x_min":0,"x_max":0,"o":"m 598 358 b 317 267 592 358 505 330 b 107 204 132 206 128 205 b 35 198 75 201 71 176 b 26 178 33 193 29 183 b 1 164 11 181 2 181 b -23 123 1 147 -20 140 b -21 63 -2 99 -10 88 b 39 27 18 53 -27 21 b 53 6 42 20 47 9 b 84 20 58 0 77 16 b 120 17 96 18 115 0 b 141 26 120 31 140 18 b 146 29 141 28 143 29 b 150 51 152 27 149 46 b 400 135 217 75 270 92 b 643 217 640 214 640 214 b 598 358 647 222 603 358 z m 221 269 b 342 953 585 207 825 1055 b 293 965 318 944 317 963 b 195 956 276 977 198 966 b 221 269 41 844 -61 311 z m 231 722 b 282 743 243 715 249 724 b 430 805 373 800 380 804 b 289 436 523 719 389 475 b 231 722 148 389 208 657 z "},"o":{"ha":688,"x_min":0,"x_max":0,"o":"m 598 358 b 317 267 592 358 505 330 b 107 204 132 206 128 205 b 35 198 75 201 71 176 b 26 178 33 193 29 183 b 1 164 11 181 2 181 b -23 123 1 147 -20 140 b -21 63 -2 99 -10 88 b 39 27 18 53 -27 21 b 53 6 42 20 47 9 b 84 20 58 0 77 16 b 120 17 96 18 115 0 b 141 26 120 31 140 18 b 146 29 141 28 143 29 b 150 51 152 27 149 46 b 400 135 217 75 270 92 b 643 217 640 214 640 214 b 598 358 647 222 603 358 z m 221 269 b 342 953 585 207 825 1055 b 293 965 318 944 317 963 b 195 956 276 977 198 966 b 221 269 41 844 -61 311 z m 231 722 b 282 743 243 715 249 724 b 430 805 373 800 380 804 b 289 436 523 719 389 475 b 231 722 148 389 208 657 z "},"Ò":{"ha":688,"x_min":0,"x_max":0,"o":"m 598 358 b 317 267 592 358 505 330 b 107 204 132 206 128 205 b 35 198 75 201 71 176 b 26 178 33 193 29 183 b 1 164 11 181 2 181 b -23 123 1 147 -20 140 b -21 63 -2 99 -10 88 b 39 27 18 53 -27 21 b 53 6 42 20 47 9 b 84 20 58 0 77 16 b 120 17 96 18 115 0 b 141 26 120 31 140 18 b 146 29 141 28 143 29 b 150 51 152 27 149 46 b 400 135 217 75 270 92 b 643 217 640 214 640 214 b 598 358 647 222 603 358 z m 221 269 b 342 953 585 207 825 1055 b 293 965 318 944 317 963 b 195 956 276 977 198 966 b 221 269 41 844 -61 311 z m 231 722 b 282 743 243 715 249 724 b 430 805 373 800 380 804 b 289 436 523 719 389 475 b 231 722 148 389 208 657 z "},"Ó":{"ha":688,"x_min":0,"x_max":0,"o":"m 598 358 b 317 267 592 358 505 330 b 107 204 132 206 128 205 b 35 198 75 201 71 176 b 26 178 33 193 29 183 b 1 164 11 181 2 181 b -23 123 1 147 -20 140 b -21 63 -2 99 -10 88 b 39 27 18 53 -27 21 b 53 6 42 20 47 9 b 84 20 58 0 77 16 b 120 17 96 18 115 0 b 141 26 120 31 140 18 b 146 29 141 28 143 29 b 150 51 152 27 149 46 b 400 135 217 75 270 92 b 643 217 640 214 640 214 b 598 358 647 222 603 358 z m 221 269 b 342 953 585 207 825 1055 b 293 965 318 944 317 963 b 195 956 276 977 198 966 b 221 269 41 844 -61 311 z m 231 722 b 282 743 243 715 249 724 b 430 805 373 800 380 804 b 289 436 523 719 389 475 b 231 722 148 389 208 657 z "},"Ô":{"ha":688,"x_min":0,"x_max":0,"o":"m 598 358 b 317 267 592 358 505 330 b 107 204 132 206 128 205 b 35 198 75 201 71 176 b 26 178 33 193 29 183 b 1 164 11 181 2 181 b -23 123 1 147 -20 140 b -21 63 -2 99 -10 88 b 39 27 18 53 -27 21 b 53 6 42 20 47 9 b 84 20 58 0 77 16 b 120 17 96 18 115 0 b 141 26 120 31 140 18 b 146 29 141 28 143 29 b 150 51 152 27 149 46 b 400 135 217 75 270 92 b 643 217 640 214 640 214 b 598 358 647 222 603 358 z m 221 269 b 342 953 585 207 825 1055 b 293 965 318 944 317 963 b 195 956 276 977 198 966 b 221 269 41 844 -61 311 z m 231 722 b 282 743 243 715 249 724 b 430 805 373 800 380 804 b 289 436 523 719 389 475 b 231 722 148 389 208 657 z "},"Õ":{"ha":688,"x_min":0,"x_max":0,"o":"m 598 358 b 317 267 592 358 505 330 b 107 204 132 206 128 205 b 35 198 75 201 71 176 b 26 178 33 193 29 183 b 1 164 11 181 2 181 b -23 123 1 147 -20 140 b -21 63 -2 99 -10 88 b 39 27 18 53 -27 21 b 53 6 42 20 47 9 b 84 20 58 0 77 16 b 120 17 96 18 115 0 b 141 26 120 31 140 18 b 146 29 141 28 143 29 b 150 51 152 27 149 46 b 400 135 217 75 270 92 b 643 217 640 214 640 214 b 598 358 647 222 603 358 z m 221 269 b 342 953 585 207 825 1055 b 293 965 318 944 317 963 b 195 956 276 977 198 966 b 221 269 41 844 -61 311 z m 231 722 b 282 743 243 715 249 724 b 430 805 373 800 380 804 b 289 436 523 719 389 475 b 231 722 148 389 208 657 z "},"Ö":{"ha":688,"x_min":0,"x_max":0,"o":"m 598 358 b 317 267 592 358 505 330 b 107 204 132 206 128 205 b 35 198 75 201 71 176 b 26 178 33 193 29 183 b 1 164 11 181 2 181 b -23 123 1 147 -20 140 b -21 63 -2 99 -10 88 b 39 27 18 53 -27 21 b 53 6 42 20 47 9 b 84 20 58 0 77 16 b 120 17 96 18 115 0 b 141 26 120 31 140 18 b 146 29 141 28 143 29 b 150 51 152 27 149 46 b 400 135 217 75 270 92 b 643 217 640 214 640 214 b 598 358 647 222 603 358 z m 221 269 b 342 953 585 207 825 1055 b 293 965 318 944 317 963 b 195 956 276 977 198 966 b 221 269 41 844 -61 311 z m 231 722 b 282 743 243 715 249 724 b 430 805 373 800 380 804 b 289 436 523 719 389 475 b 231 722 148 389 208 657 z "},"Ø":{"ha":688,"x_min":0,"x_max":0,"o":"m 598 358 b 317 267 592 358 505 330 b 107 204 132 206 128 205 b 35 198 75 201 71 176 b 26 178 33 193 29 183 b 1 164 11 181 2 181 b -23 123 1 147 -20 140 b -21 63 -2 99 -10 88 b 39 27 18 53 -27 21 b 53 6 42 20 47 9 b 84 20 58 0 77 16 b 120 17 96 18 115 0 b 141 26 120 31 140 18 b 146 29 141 28 143 29 b 150 51 152 27 149 46 b 400 135 217 75 270 92 b 643 217 640 214 640 214 b 598 358 647 222 603 358 z m 221 269 b 342 953 585 207 825 1055 b 293 965 318 944 317 963 b 195 956 276 977 198 966 b 221 269 41 844 -61 311 z m 231 722 b 282 743 243 715 249 724 b 430 805 373 800 380 804 b 289 436 523 719 389 475 b 231 722 148 389 208 657 z "},"ò":{"ha":688,"x_min":0,"x_max":0,"o":"m 598 358 b 317 267 592 358 505 330 b 107 204 132 206 128 205 b 35 198 75 201 71 176 b 26 178 33 193 29 183 b 1 164 11 181 2 181 b -23 123 1 147 -20 140 b -21 63 -2 99 -10 88 b 39 27 18 53 -27 21 b 53 6 42 20 47 9 b 84 20 58 0 77 16 b 120 17 96 18 115 0 b 141 26 120 31 140 18 b 146 29 141 28 143 29 b 150 51 152 27 149 46 b 400 135 217 75 270 92 b 643 217 640 214 640 214 b 598 358 647 222 603 358 z m 221 269 b 342 953 585 207 825 1055 b 293 965 318 944 317 963 b 195 956 276 977 198 966 b 221 269 41 844 -61 311 z m 231 722 b 282 743 243 715 249 724 b 430 805 373 800 380 804 b 289 436 523 719 389 475 b 231 722 148 389 208 657 z "},"ó":{"ha":688,"x_min":0,"x_max":0,"o":"m 598 358 b 317 267 592 358 505 330 b 107 204 132 206 128 205 b 35 198 75 201 71 176 b 26 178 33 193 29 183 b 1 164 11 181 2 181 b -23 123 1 147 -20 140 b -21 63 -2 99 -10 88 b 39 27 18 53 -27 21 b 53 6 42 20 47 9 b 84 20 58 0 77 16 b 120 17 96 18 115 0 b 141 26 120 31 140 18 b 146 29 141 28 143 29 b 150 51 152 27 149 46 b 400 135 217 75 270 92 b 643 217 640 214 640 214 b 598 358 647 222 603 358 z m 221 269 b 342 953 585 207 825 1055 b 293 965 318 944 317 963 b 195 956 276 977 198 966 b 221 269 41 844 -61 311 z m 231 722 b 282 743 243 715 249 724 b 430 805 373 800 380 804 b 289 436 523 719 389 475 b 231 722 148 389 208 657 z "},"ô":{"ha":688,"x_min":0,"x_max":0,"o":"m 598 358 b 317 267 592 358 505 330 b 107 204 132 206 128 205 b 35 198 75 201 71 176 b 26 178 33 193 29 183 b 1 164 11 181 2 181 b -23 123 1 147 -20 140 b -21 63 -2 99 -10 88 b 39 27 18 53 -27 21 b 53 6 42 20 47 9 b 84 20 58 0 77 16 b 120 17 96 18 115 0 b 141 26 120 31 140 18 b 146 29 141 28 143 29 b 150 51 152 27 149 46 b 400 135 217 75 270 92 b 643 217 640 214 640 214 b 598 358 647 222 603 358 z m 221 269 b 342 953 585 207 825 1055 b 293 965 318 944 317 963 b 195 956 276 977 198 966 b 221 269 41 844 -61 311 z m 231 722 b 282 743 243 715 249 724 b 430 805 373 800 380 804 b 289 436 523 719 389 475 b 231 722 148 389 208 657 z "},"õ":{"ha":688,"x_min":0,"x_max":0,"o":"m 598 358 b 317 267 592 358 505 330 b 107 204 132 206 128 205 b 35 198 75 201 71 176 b 26 178 33 193 29 183 b 1 164 11 181 2 181 b -23 123 1 147 -20 140 b -21 63 -2 99 -10 88 b 39 27 18 53 -27 21 b 53 6 42 20 47 9 b 84 20 58 0 77 16 b 120 17 96 18 115 0 b 141 26 120 31 140 18 b 146 29 141 28 143 29 b 150 51 152 27 149 46 b 400 135 217 75 270 92 b 643 217 640 214 640 214 b 598 358 647 222 603 358 z m 221 269 b 342 953 585 207 825 1055 b 293 965 318 944 317 963 b 195 956 276 977 198 966 b 221 269 41 844 -61 311 z m 231 722 b 282 743 243 715 249 724 b 430 805 373 800 380 804 b 289 436 523 719 389 475 b 231 722 148 389 208 657 z "},"ö":{"ha":688,"x_min":0,"x_max":0,"o":"m 598 358 b 317 267 592 358 505 330 b 107 204 132 206 128 205 b 35 198 75 201 71 176 b 26 178 33 193 29 183 b 1 164 11 181 2 181 b -23 123 1 147 -20 140 b -21 63 -2 99 -10 88 b 39 27 18 53 -27 21 b 53 6 42 20 47 9 b 84 20 58 0 77 16 b 120 17 96 18 115 0 b 141 26 120 31 140 18 b 146 29 141 28 143 29 b 150 51 152 27 149 46 b 400 135 217 75 270 92 b 643 217 640 214 640 214 b 598 358 647 222 603 358 z m 221 269 b 342 953 585 207 825 1055 b 293 965 318 944 317 963 b 195 956 276 977 198 966 b 221 269 41 844 -61 311 z m 231 722 b 282 743 243 715 249 724 b 430 805 373 800 380 804 b 289 436 523 719 389 475 b 231 722 148 389 208 657 z "},"ø":{"ha":688,"x_min":0,"x_max":0,"o":"m 598 358 b 317 267 592 358 505 330 b 107 204 132 206 128 205 b 35 198 75 201 71 176 b 26 178 33 193 29 183 b 1 164 11 181 2 181 b -23 123 1 147 -20 140 b -21 63 -2 99 -10 88 b 39 27 18 53 -27 21 b 53 6 42 20 47 9 b 84 20 58 0 77 16 b 120 17 96 18 115 0 b 141 26 120 31 140 18 b 146 29 141 28 143 29 b 150 51 152 27 149 46 b 400 135 217 75 270 92 b 643 217 640 214 640 214 b 598 358 647 222 603 358 z m 221 269 b 342 953 585 207 825 1055 b 293 965 318 944 317 963 b 195 956 276 977 198 966 b 221 269 41 844 -61 311 z m 231 722 b 282 743 243 715 249 724 b 430 805 373 800 380 804 b 289 436 523 719 389 475 b 231 722 148 389 208 657 z "},"P":{"ha":746,"x_min":0,"x_max":0,"o":"m 624 1023 b 97 583 453 1026 -143 849 b 232 635 101 583 229 632 b 221 672 233 636 229 650 b 226 725 206 711 206 709 b 311 778 248 744 308 781 b 282 483 308 728 286 532 b 270 343 177 419 220 429 b 244 96 265 264 260 154 b 241 87 245 92 244 89 b 241 54 232 81 257 61 b 258 -1 226 39 266 29 b 285 -31 258 -16 278 -20 b 301 -40 290 -35 295 -33 b 324 -33 305 -44 318 -36 l 332 -41 b 366 -26 346 -61 353 -34 b 405 -11 388 -28 406 -38 b 434 12 401 -1 434 5 b 440 60 432 30 421 44 b 417 80 435 65 423 75 b 414 117 416 91 429 120 b 428 397 398 154 430 373 b 624 1023 658 526 1082 950 z m 496 637 b 447 598 473 618 462 609 b 464 764 447 617 460 726 b 485 815 493 777 508 779 b 474 844 473 838 471 842 b 660 852 534 864 629 876 b 496 637 659 773 559 696 z "},"p":{"ha":746,"x_min":0,"x_max":0,"o":"m 624 1023 b 97 583 453 1026 -143 849 b 232 635 101 583 229 632 b 221 672 233 636 229 650 b 226 725 206 711 206 709 b 311 778 248 744 308 781 b 282 483 308 728 286 532 b 270 343 177 419 220 429 b 244 96 265 264 260 154 b 241 87 245 92 244 89 b 241 54 232 81 257 61 b 258 -1 226 39 266 29 b 285 -31 258 -16 278 -20 b 301 -40 290 -35 295 -33 b 324 -33 305 -44 318 -36 l 332 -41 b 366 -26 346 -61 353 -34 b 405 -11 388 -28 406 -38 b 434 12 401 -1 434 5 b 440 60 432 30 421 44 b 417 80 435 65 423 75 b 414 117 416 91 429 120 b 428 397 398 154 430 373 b 624 1023 658 526 1082 950 z m 496 637 b 447 598 473 618 462 609 b 464 764 447 617 460 726 b 485 815 493 777 508 779 b 474 844 473 838 471 842 b 660 852 534 864 629 876 b 496 637 659 773 559 696 z "},"Q":{"ha":829,"x_min":0,"x_max":0,"o":"m 788 201 b 749 331 789 203 752 328 b 711 322 748 332 731 328 b 499 256 671 310 506 259 b 514 271 497 255 503 262 b 634 434 562 311 601 365 b 658 862 703 584 710 709 b 615 954 648 892 629 933 b 485 1048 587 997 536 1034 b 451 1058 473 1051 458 1055 b 384 1062 429 1066 404 1068 b 361 1058 378 1061 368 1059 b 326 1044 349 1057 326 1048 b 323 1042 326 1043 325 1042 b 315 1037 321 1042 318 1040 b 298 1030 309 1031 300 1027 b 283 1032 297 1030 291 1031 b 234 1018 266 1032 247 1027 b 213 1010 228 1014 221 1011 b 192 1000 204 1009 200 1007 b 155 948 183 992 162 963 b 143 932 153 946 148 938 b 72 784 116 896 93 847 b 47 512 41 689 32 595 b 106 343 56 460 80 392 b 192 236 129 300 158 263 b 287 193 216 217 261 196 b 298 190 293 193 297 191 b 277 181 299 189 289 185 l 255 174 l 253 180 b 242 186 251 186 250 186 b 222 182 237 186 228 184 l 211 177 l 196 191 l 170 163 l 134 161 l 134 155 b 127 147 134 150 132 149 b 112 129 118 144 110 135 b 117 117 113 127 115 121 l 121 108 l 104 89 l 110 84 b 137 44 135 62 135 62 b 151 21 138 25 141 21 b 160 15 155 21 157 19 b 164 8 162 11 163 8 b 175 12 164 8 169 10 l 185 16 l 194 8 b 205 0 200 4 204 0 b 216 10 206 0 211 5 b 245 24 225 20 225 21 b 348 55 286 31 307 37 b 379 67 364 61 378 67 b 384 61 381 67 383 64 b 388 52 384 57 386 54 b 455 69 390 51 408 55 b 520 88 490 79 519 88 b 518 101 520 89 519 94 b 515 112 516 107 515 112 b 671 162 515 113 597 139 b 788 201 756 189 786 199 z m 436 400 b 435 427 435 401 435 413 b 432 453 436 452 436 452 b 427 458 429 454 427 456 b 422 462 427 459 425 461 b 418 465 420 463 418 464 b 414 467 418 466 417 467 b 408 473 412 467 410 469 b 387 476 405 481 400 482 b 361 466 380 473 369 468 b 309 465 347 461 348 461 b 299 458 302 466 301 466 b 290 446 297 450 296 448 b 282 441 286 445 282 442 b 279 437 282 439 281 437 b 277 433 277 436 276 434 b 277 429 278 432 278 430 b 279 410 274 424 274 420 b 287 387 282 405 285 394 b 289 361 290 376 291 370 l 287 349 l 276 359 b 188 544 238 388 202 465 b 190 663 183 569 184 632 b 234 802 198 713 213 760 l 244 822 l 271 795 l 308 830 b 392 904 351 872 375 893 b 414 912 403 912 405 913 b 462 898 429 910 453 902 b 525 806 487 885 508 855 b 500 489 562 697 554 600 b 474 443 492 473 480 452 b 436 400 458 420 439 397 z "},"q":{"ha":829,"x_min":0,"x_max":0,"o":"m 788 201 b 749 331 789 203 752 328 b 711 322 748 332 731 328 b 499 256 671 310 506 259 b 514 271 497 255 503 262 b 634 434 562 311 601 365 b 658 862 703 584 710 709 b 615 954 648 892 629 933 b 485 1048 587 997 536 1034 b 451 1058 473 1051 458 1055 b 384 1062 429 1066 404 1068 b 361 1058 378 1061 368 1059 b 326 1044 349 1057 326 1048 b 323 1042 326 1043 325 1042 b 315 1037 321 1042 318 1040 b 298 1030 309 1031 300 1027 b 283 1032 297 1030 291 1031 b 234 1018 266 1032 247 1027 b 213 1010 228 1014 221 1011 b 192 1000 204 1009 200 1007 b 155 948 183 992 162 963 b 143 932 153 946 148 938 b 72 784 116 896 93 847 b 47 512 41 689 32 595 b 106 343 56 460 80 392 b 192 236 129 300 158 263 b 287 193 216 217 261 196 b 298 190 293 193 297 191 b 277 181 299 189 289 185 l 255 174 l 253 180 b 242 186 251 186 250 186 b 222 182 237 186 228 184 l 211 177 l 196 191 l 170 163 l 134 161 l 134 155 b 127 147 134 150 132 149 b 112 129 118 144 110 135 b 117 117 113 127 115 121 l 121 108 l 104 89 l 110 84 b 137 44 135 62 135 62 b 151 21 138 25 141 21 b 160 15 155 21 157 19 b 164 8 162 11 163 8 b 175 12 164 8 169 10 l 185 16 l 194 8 b 205 0 200 4 204 0 b 216 10 206 0 211 5 b 245 24 225 20 225 21 b 348 55 286 31 307 37 b 379 67 364 61 378 67 b 384 61 381 67 383 64 b 388 52 384 57 386 54 b 455 69 390 51 408 55 b 520 88 490 79 519 88 b 518 101 520 89 519 94 b 515 112 516 107 515 112 b 671 162 515 113 597 139 b 788 201 756 189 786 199 z m 436 400 b 435 427 435 401 435 413 b 432 453 436 452 436 452 b 427 458 429 454 427 456 b 422 462 427 459 425 461 b 418 465 420 463 418 464 b 414 467 418 466 417 467 b 408 473 412 467 410 469 b 387 476 405 481 400 482 b 361 466 380 473 369 468 b 309 465 347 461 348 461 b 299 458 302 466 301 466 b 290 446 297 450 296 448 b 282 441 286 445 282 442 b 279 437 282 439 281 437 b 277 433 277 436 276 434 b 277 429 278 432 278 430 b 279 410 274 424 274 420 b 287 387 282 405 285 394 b 289 361 290 376 291 370 l 287 349 l 276 359 b 188 544 238 388 202 465 b 190 663 183 569 184 632 b 234 802 198 713 213 760 l 244 822 l 271 795 l 308 830 b 392 904 351 872 375 893 b 414 912 403 912 405 913 b 462 898 429 910 453 902 b 525 806 487 885 508 855 b 500 489 562 697 554 600 b 474 443 492 473 480 452 b 436 400 458 420 439 397 z "},"R":{"ha":918,"x_min":0,"x_max":0,"o":"m 451 518 b 581 964 581 648 809 857 b 336 913 506 986 413 943 b 299 929 333 913 307 925 b 281 912 292 923 289 910 b 260 891 270 915 276 888 l 250 889 b 253 863 251 883 253 870 b 24 643 177 817 88 716 b 76 591 24 642 47 619 b 174 583 156 522 114 533 b 209 616 199 609 210 619 b 183 476 206 600 183 479 b 34 325 184 470 29 326 b 108 52 182 184 123 225 b 255 34 141 51 248 12 b 307 311 258 44 283 179 b 338 406 327 398 315 397 b 752 8 453 310 652 87 b 863 108 767 -15 837 90 b 451 518 718 242 572 398 z m 390 737 b 407 767 397 753 389 765 b 497 803 429 784 469 800 b 429 714 478 773 460 749 b 390 737 359 636 371 651 z "},"r":{"ha":918,"x_min":0,"x_max":0,"o":"m 451 518 b 581 964 581 648 809 857 b 336 913 506 986 413 943 b 299 929 333 913 307 925 b 281 912 292 923 289 910 b 260 891 270 915 276 888 l 250 889 b 253 863 251 883 253 870 b 24 643 177 817 88 716 b 76 591 24 642 47 619 b 174 583 156 522 114 533 b 209 616 199 609 210 619 b 183 476 206 600 183 479 b 34 325 184 470 29 326 b 108 52 182 184 123 225 b 255 34 141 51 248 12 b 307 311 258 44 283 179 b 338 406 327 398 315 397 b 752 8 453 310 652 87 b 863 108 767 -15 837 90 b 451 518 718 242 572 398 z m 390 737 b 407 767 397 753 389 765 b 497 803 429 784 469 800 b 429 714 478 773 460 749 b 390 737 359 636 371 651 z "},"S":{"ha":507,"x_min":0,"x_max":0,"o":"m 412 830 b 466 801 423 825 463 802 b 516 889 480 817 497 856 b 537 926 527 908 537 925 b 435 996 527 952 472 997 b 272 925 350 1004 360 991 b 22 574 169 827 14 702 b 235 451 47 468 107 450 b 320 449 281 450 320 449 b 32 76 265 343 132 193 b 92 21 43 65 59 51 l 142 -23 b 480 400 262 101 388 260 b 419 597 526 466 492 569 b 195 611 366 624 262 597 b 412 830 236 690 344 795 z "},"s":{"ha":507,"x_min":0,"x_max":0,"o":"m 412 830 b 466 801 423 825 463 802 b 516 889 480 817 497 856 b 537 926 527 908 537 925 b 435 996 527 952 472 997 b 272 925 350 1004 360 991 b 22 574 169 827 14 702 b 235 451 47 468 107 450 b 320 449 281 450 320 449 b 32 76 265 343 132 193 b 92 21 43 65 59 51 l 142 -23 b 480 400 262 101 388 260 b 419 597 526 466 492 569 b 195 611 366 624 262 597 b 412 830 236 690 344 795 z "},"T":{"ha":703,"x_min":0,"x_max":0,"o":"m 916 1121 b 123 1031 701 1107 310 1064 b 77 962 78 1020 59 1013 b 149 867 99 905 65 838 b 313 864 207 886 255 857 b 351 914 324 896 294 910 b 396 880 402 916 400 933 b 389 7 385 794 387 64 b 452 2 390 4 411 2 b 538 1 497 1 516 1 b 567 920 551 132 518 810 b 614 940 582 936 556 936 b 928 976 748 953 922 972 b 916 1122 937 978 916 1114 z "},"t":{"ha":703,"x_min":0,"x_max":0,"o":"m 916 1121 b 123 1031 701 1107 310 1064 b 77 962 78 1020 59 1013 b 149 867 99 905 65 838 b 313 864 207 886 255 857 b 351 914 324 896 294 910 b 396 880 402 916 400 933 b 389 7 385 794 387 64 b 452 2 390 4 411 2 b 538 1 497 1 516 1 b 567 920 551 132 518 810 b 614 940 582 936 556 936 b 928 976 748 953 922 972 b 916 1122 937 978 916 1114 z "},"U":{"ha":568,"x_min":0,"x_max":0,"o":"m 594 789 b 595 805 604 802 595 797 b 590 822 598 813 585 813 b 587 833 593 831 593 832 b 555 870 575 841 565 868 b 494 876 545 879 509 853 b 462 878 475 891 481 874 b 448 862 457 877 454 874 b 419 838 442 843 427 847 b 414 821 417 832 413 833 b 399 782 413 800 397 810 b 402 692 402 756 386 711 b 418 675 408 684 407 677 b 295 254 393 502 351 259 b 228 807 129 347 199 623 b 83 837 244 811 75 842 b 59 731 80 834 72 798 b 264 93 18 498 11 160 b 580 677 555 75 505 456 b 591 734 575 686 586 727 b 594 789 597 744 575 778 z "},"u":{"ha":568,"x_min":0,"x_max":0,"o":"m 594 789 b 595 805 604 802 595 797 b 590 822 598 813 585 813 b 587 833 593 831 593 832 b 555 870 575 841 565 868 b 494 876 545 879 509 853 b 462 878 475 891 481 874 b 448 862 457 877 454 874 b 419 838 442 843 427 847 b 414 821 417 832 413 833 b 399 782 413 800 397 810 b 402 692 402 756 386 711 b 418 675 408 684 407 677 b 295 254 393 502 351 259 b 228 807 129 347 199 623 b 83 837 244 811 75 842 b 59 731 80 834 72 798 b 264 93 18 498 11 160 b 580 677 555 75 505 456 b 591 734 575 686 586 727 b 594 789 597 744 575 778 z "},"Ù":{"ha":568,"x_min":0,"x_max":0,"o":"m 594 789 b 595 805 604 802 595 797 b 590 822 598 813 585 813 b 587 833 593 831 593 832 b 555 870 575 841 565 868 b 494 876 545 879 509 853 b 462 878 475 891 481 874 b 448 862 457 877 454 874 b 419 838 442 843 427 847 b 414 821 417 832 413 833 b 399 782 413 800 397 810 b 402 692 402 756 386 711 b 418 675 408 684 407 677 b 295 254 393 502 351 259 b 228 807 129 347 199 623 b 83 837 244 811 75 842 b 59 731 80 834 72 798 b 264 93 18 498 11 160 b 580 677 555 75 505 456 b 591 734 575 686 586 727 b 594 789 597 744 575 778 z "},"Ú":{"ha":568,"x_min":0,"x_max":0,"o":"m 594 789 b 595 805 604 802 595 797 b 590 822 598 813 585 813 b 587 833 593 831 593 832 b 555 870 575 841 565 868 b 494 876 545 879 509 853 b 462 878 475 891 481 874 b 448 862 457 877 454 874 b 419 838 442 843 427 847 b 414 821 417 832 413 833 b 399 782 413 800 397 810 b 402 692 402 756 386 711 b 418 675 408 684 407 677 b 295 254 393 502 351 259 b 228 807 129 347 199 623 b 83 837 244 811 75 842 b 59 731 80 834 72 798 b 264 93 18 498 11 160 b 580 677 555 75 505 456 b 591 734 575 686 586 727 b 594 789 597 744 575 778 z "},"Û":{"ha":568,"x_min":0,"x_max":0,"o":"m 594 789 b 595 805 604 802 595 797 b 590 822 598 813 585 813 b 587 833 593 831 593 832 b 555 870 575 841 565 868 b 494 876 545 879 509 853 b 462 878 475 891 481 874 b 448 862 457 877 454 874 b 419 838 442 843 427 847 b 414 821 417 832 413 833 b 399 782 413 800 397 810 b 402 692 402 756 386 711 b 418 675 408 684 407 677 b 295 254 393 502 351 259 b 228 807 129 347 199 623 b 83 837 244 811 75 842 b 59 731 80 834 72 798 b 264 93 18 498 11 160 b 580 677 555 75 505 456 b 591 734 575 686 586 727 b 594 789 597 744 575 778 z "},"Ü":{"ha":568,"x_min":0,"x_max":0,"o":"m 594 789 b 595 805 604 802 595 797 b 590 822 598 813 585 813 b 587 833 593 831 593 832 b 555 870 575 841 565 868 b 494 876 545 879 509 853 b 462 878 475 891 481 874 b 448 862 457 877 454 874 b 419 838 442 843 427 847 b 414 821 417 832 413 833 b 399 782 413 800 397 810 b 402 692 402 756 386 711 b 418 675 408 684 407 677 b 295 254 393 502 351 259 b 228 807 129 347 199 623 b 83 837 244 811 75 842 b 59 731 80 834 72 798 b 264 93 18 498 11 160 b 580 677 555 75 505 456 b 591 734 575 686 586 727 b 594 789 597 744 575 778 z "},"ù":{"ha":568,"x_min":0,"x_max":0,"o":"m 594 789 b 595 805 604 802 595 797 b 590 822 598 813 585 813 b 587 833 593 831 593 832 b 555 870 575 841 565 868 b 494 876 545 879 509 853 b 462 878 475 891 481 874 b 448 862 457 877 454 874 b 419 838 442 843 427 847 b 414 821 417 832 413 833 b 399 782 413 800 397 810 b 402 692 402 756 386 711 b 418 675 408 684 407 677 b 295 254 393 502 351 259 b 228 807 129 347 199 623 b 83 837 244 811 75 842 b 59 731 80 834 72 798 b 264 93 18 498 11 160 b 580 677 555 75 505 456 b 591 734 575 686 586 727 b 594 789 597 744 575 778 z "},"ú":{"ha":568,"x_min":0,"x_max":0,"o":"m 594 789 b 595 805 604 802 595 797 b 590 822 598 813 585 813 b 587 833 593 831 593 832 b 555 870 575 841 565 868 b 494 876 545 879 509 853 b 462 878 475 891 481 874 b 448 862 457 877 454 874 b 419 838 442 843 427 847 b 414 821 417 832 413 833 b 399 782 413 800 397 810 b 402 692 402 756 386 711 b 418 675 408 684 407 677 b 295 254 393 502 351 259 b 228 807 129 347 199 623 b 83 837 244 811 75 842 b 59 731 80 834 72 798 b 264 93 18 498 11 160 b 580 677 555 75 505 456 b 591 734 575 686 586 727 b 594 789 597 744 575 778 z "},"û":{"ha":568,"x_min":0,"x_max":0,"o":"m 594 789 b 595 805 604 802 595 797 b 590 822 598 813 585 813 b 587 833 593 831 593 832 b 555 870 575 841 565 868 b 494 876 545 879 509 853 b 462 878 475 891 481 874 b 448 862 457 877 454 874 b 419 838 442 843 427 847 b 414 821 417 832 413 833 b 399 782 413 800 397 810 b 402 692 402 756 386 711 b 418 675 408 684 407 677 b 295 254 393 502 351 259 b 228 807 129 347 199 623 b 83 837 244 811 75 842 b 59 731 80 834 72 798 b 264 93 18 498 11 160 b 580 677 555 75 505 456 b 591 734 575 686 586 727 b 594 789 597 744 575 778 z "},"ü":{"ha":568,"x_min":0,"x_max":0,"o":"m 594 789 b 595 805 604 802 595 797 b 590 822 598 813 585 813 b 587 833 593 831 593 832 b 555 870 575 841 565 868 b 494 876 545 879 509 853 b 462 878 475 891 481 874 b 448 862 457 877 454 874 b 419 838 442 843 427 847 b 414 821 417 832 413 833 b 399 782 413 800 397 810 b 402 692 402 756 386 711 b 418 675 408 684 407 677 b 295 254 393 502 351 259 b 228 807 129 347 199 623 b 83 837 244 811 75 842 b 59 731 80 834 72 798 b 264 93 18 498 11 160 b 580 677 555 75 505 456 b 591 734 575 686 586 727 b 594 789 597 744 575 778 z "},"V":{"ha":679,"x_min":0,"x_max":0,"o":"m 649 962 b 278 346 498 714 416 576 b 229 757 254 520 229 706 b 259 795 235 764 266 792 b 258 823 254 802 274 818 b 243 851 249 833 244 832 b 225 859 243 856 242 856 b 155 893 189 857 175 887 b 135 887 148 888 140 900 b 124 882 131 880 130 880 b 56 794 77 882 92 816 b 65 758 70 781 66 778 b 94 574 76 710 84 653 b 153 98 128 299 144 246 b 176 62 174 89 158 66 b 196 40 189 59 187 46 b 223 14 209 34 213 21 b 241 19 232 12 230 13 b 272 13 252 31 261 17 b 291 30 276 13 286 34 b 313 41 309 25 308 24 b 344 110 315 81 371 65 b 358 129 348 115 355 124 b 347 138 355 131 350 136 b 769 872 419 312 718 770 b 649 962 791 899 675 938 z "},"v":{"ha":679,"x_min":0,"x_max":0,"o":"m 649 962 b 278 346 498 714 416 576 b 229 757 254 520 229 706 b 259 795 235 764 266 792 b 258 823 254 802 274 818 b 243 851 249 833 244 832 b 225 859 243 856 242 856 b 155 893 189 857 175 887 b 135 887 148 888 140 900 b 124 882 131 880 130 880 b 56 794 77 882 92 816 b 65 758 70 781 66 778 b 94 574 76 710 84 653 b 153 98 128 299 144 246 b 176 62 174 89 158 66 b 196 40 189 59 187 46 b 223 14 209 34 213 21 b 241 19 232 12 230 13 b 272 13 252 31 261 17 b 291 30 276 13 286 34 b 313 41 309 25 308 24 b 344 110 315 81 371 65 b 358 129 348 115 355 124 b 347 138 355 131 350 136 b 769 872 419 312 718 770 b 649 962 791 899 675 938 z "},"W":{"ha":911,"x_min":0,"x_max":0,"o":"m 676 102 b 1004 940 732 243 943 754 b 868 991 983 949 864 998 b 590 291 860 976 619 369 b 567 643 564 434 543 549 b 536 687 533 665 580 669 b 531 711 535 694 541 714 b 498 732 518 708 511 734 b 475 738 488 729 484 743 b 467 739 471 736 469 736 b 421 728 454 744 433 740 b 391 720 412 717 403 720 l 391 699 b 368 685 383 696 362 695 b 357 665 375 673 353 675 b 355 656 359 661 359 660 b 253 412 334 592 286 474 b 228 684 243 489 233 602 b 240 723 224 722 233 697 b 248 738 239 733 251 728 b 257 750 244 747 258 744 b 259 780 246 769 269 766 b 262 800 250 789 268 794 b 259 853 251 803 269 848 b 247 861 253 858 250 855 b 231 872 244 867 232 864 b 223 876 231 877 230 877 b 205 885 212 871 214 887 b 165 883 178 874 190 906 b 152 893 162 886 155 891 l 148 888 b 133 885 144 879 136 892 b 100 866 124 878 106 878 b 87 852 97 857 86 863 b 80 843 87 847 86 845 b 70 818 65 840 86 825 b 63 789 50 807 80 803 b 108 336 74 641 89 525 b 121 157 123 226 115 196 b 129 132 131 144 109 143 b 143 99 150 125 124 104 b 178 66 158 95 170 63 b 193 59 187 60 187 63 b 204 56 195 55 203 59 b 226 55 209 48 216 62 b 267 64 240 48 250 67 b 279 76 272 62 273 63 b 312 97 286 94 297 93 b 325 137 301 130 334 118 b 417 401 335 196 362 281 b 503 37 442 263 454 142 b 522 0 519 38 519 9 b 589 -15 539 -4 577 -9 b 613 2 594 -23 607 -3 b 639 9 627 -2 637 -10 b 665 27 638 23 666 17 b 671 44 666 36 674 32 b 675 55 670 51 670 53 b 677 65 681 58 681 58 b 689 92 670 74 683 84 b 676 102 686 95 679 100 z "},"w":{"ha":911,"x_min":0,"x_max":0,"o":"m 676 102 b 1004 940 732 243 943 754 b 868 991 983 949 864 998 b 590 291 860 976 619 369 b 567 643 564 434 543 549 b 536 687 533 665 580 669 b 531 711 535 694 541 714 b 498 732 518 708 511 734 b 475 738 488 729 484 743 b 467 739 471 736 469 736 b 421 728 454 744 433 740 b 391 720 412 717 403 720 l 391 699 b 368 685 383 696 362 695 b 357 665 375 673 353 675 b 355 656 359 661 359 660 b 253 412 334 592 286 474 b 228 684 243 489 233 602 b 240 723 224 722 233 697 b 248 738 239 733 251 728 b 257 750 244 747 258 744 b 259 780 246 769 269 766 b 262 800 250 789 268 794 b 259 853 251 803 269 848 b 247 861 253 858 250 855 b 231 872 244 867 232 864 b 223 876 231 877 230 877 b 205 885 212 871 214 887 b 165 883 178 874 190 906 b 152 893 162 886 155 891 l 148 888 b 133 885 144 879 136 892 b 100 866 124 878 106 878 b 87 852 97 857 86 863 b 80 843 87 847 86 845 b 70 818 65 840 86 825 b 63 789 50 807 80 803 b 108 336 74 641 89 525 b 121 157 123 226 115 196 b 129 132 131 144 109 143 b 143 99 150 125 124 104 b 178 66 158 95 170 63 b 193 59 187 60 187 63 b 204 56 195 55 203 59 b 226 55 209 48 216 62 b 267 64 240 48 250 67 b 279 76 272 62 273 63 b 312 97 286 94 297 93 b 325 137 301 130 334 118 b 417 401 335 196 362 281 b 503 37 442 263 454 142 b 522 0 519 38 519 9 b 589 -15 539 -4 577 -9 b 613 2 594 -23 607 -3 b 639 9 627 -2 637 -10 b 665 27 638 23 666 17 b 671 44 666 36 674 32 b 675 55 670 51 670 53 b 677 65 681 58 681 58 b 689 92 670 74 683 84 b 676 102 686 95 679 100 z "},"X":{"ha":851,"x_min":0,"x_max":0,"o":"m 609 562 b 567 597 585 580 566 596 b 665 739 590 631 639 701 b 675 730 667 737 672 732 b 793 814 709 755 754 787 b 761 886 786 838 774 868 b 748 909 746 890 764 909 b 741 918 741 910 741 911 b 719 932 745 932 718 920 b 698 945 719 953 703 933 b 638 949 702 949 648 961 b 625 944 635 944 633 944 b 615 939 617 945 616 944 b 594 925 613 928 592 940 b 575 905 597 909 571 918 b 564 887 580 896 561 895 b 558 872 567 881 554 879 b 448 693 558 851 477 733 b 304 807 411 719 345 781 b 261 857 266 835 273 833 b 253 868 263 862 263 863 b 236 895 240 873 244 884 b 191 909 238 907 194 896 b 147 922 176 919 152 933 b 121 903 135 908 133 933 b 86 848 84 913 83 879 b 60 817 80 840 67 825 b 72 800 67 813 69 803 b 78 783 77 798 69 784 b 84 759 87 784 78 759 b 93 743 88 759 91 747 b 139 744 104 743 127 744 b 353 569 189 698 319 607 b -24 116 285 469 82 249 l 30 69 b 87 21 60 42 85 21 b 472 471 132 62 406 385 b 642 342 475 474 492 462 b 756 255 704 293 743 262 b 609 562 894 422 867 338 z "},"x":{"ha":851,"x_min":0,"x_max":0,"o":"m 609 562 b 567 597 585 580 566 596 b 665 739 590 631 639 701 b 675 730 667 737 672 732 b 793 814 709 755 754 787 b 761 886 786 838 774 868 b 748 909 746 890 764 909 b 741 918 741 910 741 911 b 719 932 745 932 718 920 b 698 945 719 953 703 933 b 638 949 702 949 648 961 b 625 944 635 944 633 944 b 615 939 617 945 616 944 b 594 925 613 928 592 940 b 575 905 597 909 571 918 b 564 887 580 896 561 895 b 558 872 567 881 554 879 b 448 693 558 851 477 733 b 304 807 411 719 345 781 b 261 857 266 835 273 833 b 253 868 263 862 263 863 b 236 895 240 873 244 884 b 191 909 238 907 194 896 b 147 922 176 919 152 933 b 121 903 135 908 133 933 b 86 848 84 913 83 879 b 60 817 80 840 67 825 b 72 800 67 813 69 803 b 78 783 77 798 69 784 b 84 759 87 784 78 759 b 93 743 88 759 91 747 b 139 744 104 743 127 744 b 353 569 189 698 319 607 b -24 116 285 469 82 249 l 30 69 b 87 21 60 42 85 21 b 472 471 132 62 406 385 b 642 342 475 474 492 462 b 756 255 704 293 743 262 b 609 562 894 422 867 338 z "},"Y":{"ha":747,"x_min":0,"x_max":0,"o":"m 807 954 b 746 1000 791 989 786 1014 b 720 1002 734 998 731 1007 b 688 964 710 998 696 974 b 607 877 639 935 657 940 b 347 484 494 746 447 621 b 256 806 325 553 222 742 b 265 854 273 824 248 814 b 257 895 273 885 276 884 b 244 903 256 898 243 897 b 236 908 244 907 242 908 b 227 915 229 908 228 909 b 202 918 228 927 207 918 b 163 923 182 934 192 941 b 146 936 159 926 151 933 b 131 926 142 930 140 926 b 113 918 121 926 113 923 b 89 899 103 914 98 906 b 83 885 83 897 83 895 b 64 858 85 872 73 866 b 75 840 67 854 75 842 b 61 819 75 838 61 821 b 70 799 64 813 77 810 b 183 482 107 683 119 646 b 257 286 223 386 231 347 b 266 271 266 283 255 274 b 284 255 279 265 263 257 b 294 -28 284 177 290 49 b 441 -25 296 -31 437 -29 b 443 262 451 -14 426 216 b 454 280 452 265 445 277 b 459 288 459 282 460 284 b 465 303 455 296 468 296 b 630 650 480 415 553 526 b 751 783 679 709 722 804 b 799 849 773 764 784 830 b 844 868 810 853 832 863 b 834 899 845 879 841 890 b 807 954 860 926 836 940 z "},"y":{"ha":747,"x_min":0,"x_max":0,"o":"m 807 954 b 746 1000 791 989 786 1014 b 720 1002 734 998 731 1007 b 688 964 710 998 696 974 b 607 877 639 935 657 940 b 347 484 494 746 447 621 b 256 806 325 553 222 742 b 265 854 273 824 248 814 b 257 895 273 885 276 884 b 244 903 256 898 243 897 b 236 908 244 907 242 908 b 227 915 229 908 228 909 b 202 918 228 927 207 918 b 163 923 182 934 192 941 b 146 936 159 926 151 933 b 131 926 142 930 140 926 b 113 918 121 926 113 923 b 89 899 103 914 98 906 b 83 885 83 897 83 895 b 64 858 85 872 73 866 b 75 840 67 854 75 842 b 61 819 75 838 61 821 b 70 799 64 813 77 810 b 183 482 107 683 119 646 b 257 286 223 386 231 347 b 266 271 266 283 255 274 b 284 255 279 265 263 257 b 294 -28 284 177 290 49 b 441 -25 296 -31 437 -29 b 443 262 451 -14 426 216 b 454 280 452 265 445 277 b 459 288 459 282 460 284 b 465 303 455 296 468 296 b 630 650 480 415 553 526 b 751 783 679 709 722 804 b 799 849 773 764 784 830 b 844 868 810 853 832 863 b 834 899 845 879 841 890 b 807 954 860 926 836 940 z "},"Ý":{"ha":747,"x_min":0,"x_max":0,"o":"m 807 954 b 746 1000 791 989 786 1014 b 720 1002 734 998 731 1007 b 688 964 710 998 696 974 b 607 877 639 935 657 940 b 347 484 494 746 447 621 b 256 806 325 553 222 742 b 265 854 273 824 248 814 b 257 895 273 885 276 884 b 244 903 256 898 243 897 b 236 908 244 907 242 908 b 227 915 229 908 228 909 b 202 918 228 927 207 918 b 163 923 182 934 192 941 b 146 936 159 926 151 933 b 131 926 142 930 140 926 b 113 918 121 926 113 923 b 89 899 103 914 98 906 b 83 885 83 897 83 895 b 64 858 85 872 73 866 b 75 840 67 854 75 842 b 61 819 75 838 61 821 b 70 799 64 813 77 810 b 183 482 107 683 119 646 b 257 286 223 386 231 347 b 266 271 266 283 255 274 b 284 255 279 265 263 257 b 294 -28 284 177 290 49 b 441 -25 296 -31 437 -29 b 443 262 451 -14 426 216 b 454 280 452 265 445 277 b 459 288 459 282 460 284 b 465 303 455 296 468 296 b 630 650 480 415 553 526 b 751 783 679 709 722 804 b 799 849 773 764 784 830 b 844 868 810 853 832 863 b 834 899 845 879 841 890 b 807 954 860 926 836 940 z "},"ý":{"ha":747,"x_min":0,"x_max":0,"o":"m 807 954 b 746 1000 791 989 786 1014 b 720 1002 734 998 731 1007 b 688 964 710 998 696 974 b 607 877 639 935 657 940 b 347 484 494 746 447 621 b 256 806 325 553 222 742 b 265 854 273 824 248 814 b 257 895 273 885 276 884 b 244 903 256 898 243 897 b 236 908 244 907 242 908 b 227 915 229 908 228 909 b 202 918 228 927 207 918 b 163 923 182 934 192 941 b 146 936 159 926 151 933 b 131 926 142 930 140 926 b 113 918 121 926 113 923 b 89 899 103 914 98 906 b 83 885 83 897 83 895 b 64 858 85 872 73 866 b 75 840 67 854 75 842 b 61 819 75 838 61 821 b 70 799 64 813 77 810 b 183 482 107 683 119 646 b 257 286 223 386 231 347 b 266 271 266 283 255 274 b 284 255 279 265 263 257 b 294 -28 284 177 290 49 b 441 -25 296 -31 437 -29 b 443 262 451 -14 426 216 b 454 280 452 265 445 277 b 459 288 459 282 460 284 b 465 303 455 296 468 296 b 630 650 480 415 553 526 b 751 783 679 709 722 804 b 799 849 773 764 784 830 b 844 868 810 853 832 863 b 834 899 845 879 841 890 b 807 954 860 926 836 940 z "},"ÿ":{"ha":747,"x_min":0,"x_max":0,"o":"m 807 954 b 746 1000 791 989 786 1014 b 720 1002 734 998 731 1007 b 688 964 710 998 696 974 b 607 877 639 935 657 940 b 347 484 494 746 447 621 b 256 806 325 553 222 742 b 265 854 273 824 248 814 b 257 895 273 885 276 884 b 244 903 256 898 243 897 b 236 908 244 907 242 908 b 227 915 229 908 228 909 b 202 918 228 927 207 918 b 163 923 182 934 192 941 b 146 936 159 926 151 933 b 131 926 142 930 140 926 b 113 918 121 926 113 923 b 89 899 103 914 98 906 b 83 885 83 897 83 895 b 64 858 85 872 73 866 b 75 840 67 854 75 842 b 61 819 75 838 61 821 b 70 799 64 813 77 810 b 183 482 107 683 119 646 b 257 286 223 386 231 347 b 266 271 266 283 255 274 b 284 255 279 265 263 257 b 294 -28 284 177 290 49 b 441 -25 296 -31 437 -29 b 443 262 451 -14 426 216 b 454 280 452 265 445 277 b 459 288 459 282 460 284 b 465 303 455 296 468 296 b 630 650 480 415 553 526 b 751 783 679 709 722 804 b 799 849 773 764 784 830 b 844 868 810 853 832 863 b 834 899 845 879 841 890 b 807 954 860 926 836 940 z "},"Ÿ":{"ha":747,"x_min":0,"x_max":0,"o":"m 807 954 b 746 1000 791 989 786 1014 b 720 1002 734 998 731 1007 b 688 964 710 998 696 974 b 607 877 639 935 657 940 b 347 484 494 746 447 621 b 256 806 325 553 222 742 b 265 854 273 824 248 814 b 257 895 273 885 276 884 b 244 903 256 898 243 897 b 236 908 244 907 242 908 b 227 915 229 908 228 909 b 202 918 228 927 207 918 b 163 923 182 934 192 941 b 146 936 159 926 151 933 b 131 926 142 930 140 926 b 113 918 121 926 113 923 b 89 899 103 914 98 906 b 83 885 83 897 83 895 b 64 858 85 872 73 866 b 75 840 67 854 75 842 b 61 819 75 838 61 821 b 70 799 64 813 77 810 b 183 482 107 683 119 646 b 257 286 223 386 231 347 b 266 271 266 283 255 274 b 284 255 279 265 263 257 b 294 -28 284 177 290 49 b 441 -25 296 -31 437 -29 b 443 262 451 -14 426 216 b 454 280 452 265 445 277 b 459 288 459 282 460 284 b 465 303 455 296 468 296 b 630 650 480 415 553 526 b 751 783 679 709 722 804 b 799 849 773 764 784 830 b 844 868 810 853 832 863 b 834 899 845 879 841 890 b 807 954 860 926 836 940 z "},"Z":{"ha":874,"x_min":0,"x_max":0,"o":"m 808 417 b 283 291 798 413 276 292 b 716 746 494 512 583 600 b 724 759 721 748 717 760 b 727 765 727 759 728 760 b 732 777 724 775 735 765 b 737 797 727 788 742 788 b 739 812 732 805 746 802 b 740 829 732 820 748 822 b 738 842 733 835 745 838 b 728 872 736 849 732 864 b 696 908 721 886 707 897 b 681 915 694 916 683 905 b 667 923 678 925 671 915 b 649 928 661 933 655 917 b 635 930 644 938 641 924 b 622 929 630 935 626 925 b 594 929 613 934 604 928 b 186 831 495 901 285 865 b 179 827 183 831 180 829 b 166 818 175 819 168 828 b 148 801 163 804 149 818 b 131 780 148 783 127 798 b 118 757 137 767 114 766 b 113 735 125 748 114 741 b 121 701 116 726 115 709 b 126 686 128 697 116 687 b 132 676 131 685 132 683 b 150 652 130 659 152 673 b 172 638 148 640 172 653 b 182 632 175 631 175 630 b 202 623 190 635 197 624 b 221 615 204 624 217 617 b 256 641 229 623 252 645 b 262 645 259 640 261 641 b 271 649 264 650 265 651 b 288 665 284 646 273 665 b 302 686 305 666 286 682 b 329 707 319 695 297 701 b 507 749 370 720 504 752 b 21 250 525 755 -4 213 b 1 240 12 247 8 240 b -37 204 -10 232 -20 199 b -53 197 -49 203 -51 202 b -60 178 -58 187 -66 197 b -63 162 -58 172 -58 169 b -71 119 -74 147 -72 129 b -36 76 -68 101 -33 105 b 33 49 -33 29 11 62 b 70 69 50 34 62 53 b 845 275 196 122 760 242 b 808 417 838 300 810 410 z "},"z":{"ha":874,"x_min":0,"x_max":0,"o":"m 808 417 b 283 291 798 413 276 292 b 716 746 494 512 583 600 b 724 759 721 748 717 760 b 727 765 727 759 728 760 b 732 777 724 775 735 765 b 737 797 727 788 742 788 b 739 812 732 805 746 802 b 740 829 732 820 748 822 b 738 842 733 835 745 838 b 728 872 736 849 732 864 b 696 908 721 886 707 897 b 681 915 694 916 683 905 b 667 923 678 925 671 915 b 649 928 661 933 655 917 b 635 930 644 938 641 924 b 622 929 630 935 626 925 b 594 929 613 934 604 928 b 186 831 495 901 285 865 b 179 827 183 831 180 829 b 166 818 175 819 168 828 b 148 801 163 804 149 818 b 131 780 148 783 127 798 b 118 757 137 767 114 766 b 113 735 125 748 114 741 b 121 701 116 726 115 709 b 126 686 128 697 116 687 b 132 676 131 685 132 683 b 150 652 130 659 152 673 b 172 638 148 640 172 653 b 182 632 175 631 175 630 b 202 623 190 635 197 624 b 221 615 204 624 217 617 b 256 641 229 623 252 645 b 262 645 259 640 261 641 b 271 649 264 650 265 651 b 288 665 284 646 273 665 b 302 686 305 666 286 682 b 329 707 319 695 297 701 b 507 749 370 720 504 752 b 21 250 525 755 -4 213 b 1 240 12 247 8 240 b -37 204 -10 232 -20 199 b -53 197 -49 203 -51 202 b -60 178 -58 187 -66 197 b -63 162 -58 172 -58 169 b -71 119 -74 147 -72 129 b -36 76 -68 101 -33 105 b 33 49 -33 29 11 62 b 70 69 50 34 62 53 b 845 275 196 122 760 242 b 808 417 838 300 810 410 z "},"[":{"ha":625,"x_min":0,"x_max":0,"o":"m 556 1062 b 507 1073 549 1071 520 1069 b 351 1055 459 1071 399 1076 b 253 1058 319 1041 276 1045 b 235 1062 250 1066 246 1066 b 218 1073 227 1059 225 1061 b 184 1068 211 1079 189 1052 b 166 1066 177 1075 175 1074 b 140 1060 157 1052 147 1070 b 101 1028 132 1054 103 1042 b 85 1006 104 1017 77 1018 b 68 981 93 992 79 988 b 73 932 97 954 54 949 b 88 784 76 871 91 879 b 69 44 77 540 150 246 b 65 16 77 28 54 31 b 65 2 70 8 70 8 b 67 -11 60 -3 60 -4 b 74 -38 83 -23 56 -29 b 88 -67 85 -47 77 -58 b 130 -108 93 -86 122 -92 b 151 -112 136 -108 144 -100 b 176 -117 160 -129 167 -105 b 209 -119 189 -133 192 -104 b 221 -117 215 -124 216 -124 b 245 -111 226 -103 241 -120 b 456 -52 309 -78 372 -73 b 548 -24 542 -34 548 -32 b 515 144 547 -12 521 111 b 506 144 515 144 506 144 b 285 100 495 143 331 109 b 287 160 280 110 287 143 b 273 857 310 389 258 605 b 503 882 354 852 439 889 b 559 889 556 879 540 881 b 556 1062 571 883 556 1055 z "},"]":{"ha":625,"x_min":0,"x_max":0,"o":"m 560 949 b 557 963 565 955 565 955 b 551 990 541 974 568 980 b 537 1018 540 999 547 1010 b 495 1060 531 1038 503 1043 b 474 1064 488 1060 480 1052 b 449 1069 465 1081 458 1056 b 416 1071 435 1084 432 1056 b 404 1068 409 1075 409 1075 b 379 1062 399 1055 384 1071 b 168 1003 316 1030 252 1024 b 76 976 83 986 76 984 b 110 807 77 964 103 840 b 118 808 110 807 118 808 b 339 852 129 808 294 843 b 338 791 344 841 337 809 b 351 94 314 563 366 346 b 121 70 271 99 185 63 b 66 63 68 72 85 71 b 68 -111 54 69 69 -104 b 117 -122 76 -119 105 -117 b 273 -104 166 -119 225 -125 b 372 -106 306 -90 349 -93 b 390 -110 374 -114 378 -115 b 407 -121 397 -107 400 -109 b 441 -116 413 -128 435 -100 b 459 -114 447 -123 450 -123 b 485 -109 468 -100 478 -119 b 523 -77 493 -102 522 -90 b 540 -55 520 -65 547 -66 b 556 -29 532 -41 546 -36 b 552 20 527 -3 571 3 b 537 167 548 81 533 72 b 555 907 548 412 474 706 b 560 935 547 923 571 920 b 560 949 555 943 555 944 z "}," ":{"ha":435,"x_min":0,"x_max":0,"o":""},"­":{"ha":0,"x_min":0,"x_max":0,"o":""},"":{"ha":919,"x_min":0,"x_max":0,"o":"m 1178 -321 b 1287 -219 1193 -353 1278 -221 b 610 372 1281 -202 737 254 b 317 915 1278 712 919 1118 b 107 526 123 855 -65 723 b 246 581 102 495 257 581 b 205 673 244 589 214 655 b 801 768 280 780 659 871 b 493 479 830 651 582 544 l 470 492 b 473 584 472 521 473 557 l 499 591 b 478 673 501 622 496 644 b 479 722 479 685 479 710 b 456 742 463 723 465 727 b 431 755 448 761 439 747 b 379 733 426 766 392 737 b 328 721 360 732 329 747 b 309 693 325 706 309 707 b 312 670 299 690 302 689 b 310 374 338 600 307 380 b 52 231 309 373 53 231 l 43 225 b 116 97 84 150 117 88 b 306 197 115 93 308 199 b 304 124 306 196 305 164 b 303 17 302 70 301 46 b 450 11 341 14 404 12 b 456 129 453 31 453 63 b 468 288 461 289 461 284 l 474 292 b 1178 -321 649 127 988 -151 z "},"":{"ha":1150,"x_min":0,"x_max":0,"o":"m 988 2 b 1066 2 1038 -1 1064 -1 b 1074 148 1068 4 1076 146 b 234 202 967 158 383 189 b 632 348 369 266 518 327 b 650 353 641 358 641 341 b 677 362 656 366 663 363 b 704 400 681 380 684 397 b 713 409 714 402 714 403 b 720 465 713 429 727 446 b 715 488 728 475 713 480 b 712 498 717 496 712 492 b 673 543 709 511 673 522 b 627 557 653 532 641 540 b 617 547 625 554 620 550 b 598 553 612 550 600 560 b 591 552 596 550 594 550 b 378 562 580 548 425 548 b 803 689 476 608 736 702 b 871 719 834 678 842 709 b 923 772 917 734 916 745 b 903 816 936 791 926 790 b 858 880 870 843 875 866 b 791 856 823 897 821 885 b 149 604 588 802 276 723 b 144 475 126 571 115 514 b 152 462 151 475 147 462 b 169 448 161 453 166 454 b 193 432 174 438 186 438 b 203 426 194 428 202 430 b 214 423 204 423 212 427 b 323 408 232 411 309 416 b -1 260 246 374 73 297 b -10 255 -3 257 -8 262 b -23 245 -12 248 -22 254 b -36 232 -25 235 -37 244 b -51 213 -36 218 -53 229 b -63 191 -49 197 -67 205 b -60 110 -70 172 -75 129 b -56 102 -57 108 -56 105 b -42 83 -57 92 -40 96 b -23 70 -43 72 -24 83 b -4 63 -22 57 -9 67 b 9 53 -3 59 3 47 b 29 49 16 60 22 42 b 988 2 105 63 813 11 z "},"":{"ha":875,"x_min":0,"x_max":0,"o":"m 796 -20 b 658 496 777 47 660 481 b 795 549 639 497 802 549 b 623 650 741 713 789 703 b 557 958 599 696 569 897 b 587 983 567 966 578 975 b 597 1065 561 1003 596 1041 b 464 1125 611 1066 462 1128 b 436 1068 460 1123 441 1080 b 395 1026 407 1069 397 1058 b 383 995 399 1011 374 1006 b 390 960 390 981 365 969 b 202 562 346 856 256 675 b 101 489 180 497 159 507 b 79 511 95 494 84 506 b 46 480 71 503 54 488 l 10 480 b 3 436 12 452 -14 476 b -24 406 -4 429 -17 414 b 10 373 -15 398 1 382 l 10 334 b 62 323 45 335 15 308 b 81 304 67 318 76 309 b 14 113 114 347 20 126 b 8 43 1 98 16 68 b 81 -37 5 -12 7 -58 b 169 11 133 -21 186 -48 b 288 383 157 103 251 292 b 511 452 318 395 479 443 b 755 -370 527 385 708 -287 b 898 -329 755 -402 891 -322 b 796 -20 874 -250 813 -88 z m 430 588 b 375 570 400 578 386 574 b 447 719 385 595 428 680 b 473 603 452 698 472 609 b 430 588 473 602 454 595 z "},"":{"ha":1115,"x_min":0,"x_max":0,"o":"m 784 9 b 887 9 894 -3 885 -3 b 965 754 893 45 949 571 b 1005 1037 981 894 978 953 b 1397 1077 1014 1042 1319 1071 b 1468 931 1409 1051 1463 937 b 1722 1037 1487 938 1729 1049 b 1746 1050 1730 1046 1738 1036 b 1790 1097 1770 1076 1772 1026 b 1831 1145 1850 1108 1813 1105 b 1843 1167 1835 1154 1841 1164 b 1840 1199 1851 1176 1836 1184 b 1831 1228 1844 1220 1828 1212 b 1824 1244 1835 1239 1825 1237 b 1787 1283 1825 1254 1792 1270 b 1774 1288 1785 1289 1784 1290 b 1722 1313 1752 1278 1739 1295 b 1705 1300 1718 1310 1710 1304 b 1679 1308 1699 1303 1682 1317 b 1656 1304 1677 1301 1657 1309 b 1649 1302 1656 1302 1653 1301 b 1021 1244 1515 1280 1131 1250 b 829 1266 1038 1252 832 1269 b 821 1217 826 1262 822 1228 b 205 1132 622 1200 431 1149 b 96 1108 172 1105 143 1098 b 63 1057 99 1059 64 1086 b 53 1036 62 1044 59 1044 b 81 986 49 1034 76 995 b 80 919 83 969 62 919 b 132 883 113 925 100 872 b 154 872 137 885 149 876 b 203 902 166 879 190 895 b 265 910 223 905 268 882 b 794 1008 255 944 728 1013 b 770 797 790 996 777 881 b 695 21 775 800 687 32 b 784 9 697 20 737 15 z "},"":{"ha":722,"x_min":0,"x_max":0,"o":"m -151 -150 b -97 -203 -110 -195 -100 -204 b -25 -139 -95 -201 -63 -173 b 364 210 142 13 235 96 b 546 370 476 308 490 320 b 660 465 608 426 634 448 b 682 481 671 473 681 480 b 694 490 684 482 689 486 b 702 500 698 494 702 499 b 706 503 702 502 704 503 b 711 508 708 503 710 505 b 716 513 711 510 714 512 b 721 520 719 514 721 516 b 725 526 721 525 722 526 b 729 534 730 526 730 527 b 732 542 727 540 728 541 b 736 551 737 543 737 545 b 740 562 735 557 736 559 b 742 572 744 565 745 566 b 743 581 740 577 740 579 b 744 589 747 584 747 585 b 744 598 742 593 742 595 b 744 604 746 600 746 602 b 743 612 742 606 742 610 b 742 617 744 615 743 617 b 740 621 740 617 739 619 b 730 644 740 626 734 642 b 729 648 729 645 728 646 b 725 653 730 649 728 651 b 721 660 723 654 721 657 b 716 664 721 662 719 664 b 710 670 713 664 711 666 b 703 675 709 674 707 675 b 696 682 699 675 697 677 b 688 686 695 687 694 687 b 679 692 683 685 681 686 b 670 696 676 698 675 698 b 661 698 665 694 664 694 b 653 702 659 702 656 703 b 645 703 650 701 647 702 b 637 705 643 705 640 705 b 631 705 635 704 632 704 b 584 705 630 708 592 707 b 523 700 582 704 554 702 b 455 695 491 698 461 696 b 360 688 436 693 361 687 b 615 861 358 690 537 812 b 751 943 671 896 748 943 b 758 936 752 943 755 940 b 788 945 766 925 772 927 l 802 961 l 842 965 l 842 971 b 845 978 842 976 843 978 b 851 1000 851 978 854 990 l 848 1009 l 861 1022 b 872 1038 872 1032 874 1035 b 871 1043 871 1039 870 1042 b 855 1060 871 1044 864 1052 b 837 1077 846 1068 838 1076 b 835 1097 836 1078 835 1088 l 835 1116 l 827 1116 b 816 1121 820 1116 818 1117 b 785 1132 814 1126 799 1132 b 774 1136 781 1132 776 1134 b 743 1125 765 1144 758 1142 l 729 1110 l 707 1109 b 684 1101 685 1107 685 1107 b 676 1093 683 1097 681 1094 b 669 1087 673 1091 669 1089 b 667 1083 669 1085 668 1083 b 658 1077 666 1083 662 1080 b 536 997 651 1070 626 1054 b 244 800 450 942 350 875 b 169 749 217 781 184 758 b 139 729 154 740 141 731 b 133 726 137 727 134 725 b 128 722 131 727 129 725 b 123 718 127 719 125 718 b 119 714 121 719 119 717 b 112 708 118 711 115 708 b 106 700 109 707 107 705 b 99 692 105 695 103 693 b 94 682 94 691 93 689 b 88 672 95 675 94 674 b 83 661 81 669 81 669 b 79 649 86 654 85 653 b 76 638 74 644 73 643 b 75 627 78 635 78 632 b 74 615 73 622 72 619 b 75 604 75 612 76 607 b 77 596 74 601 75 598 b 79 590 79 595 79 592 b 80 584 78 587 79 585 b 83 578 81 583 83 580 b 86 572 83 576 84 573 b 90 565 88 572 90 568 b 96 557 90 561 91 558 b 103 547 99 555 102 552 b 108 542 104 542 105 541 b 121 533 114 544 120 540 b 131 528 123 527 123 526 b 143 522 138 529 139 528 b 155 517 147 514 148 514 b 166 514 159 520 161 519 b 176 512 172 508 173 508 b 186 511 180 515 180 515 b 195 510 190 508 193 508 b 201 510 197 511 199 512 b 207 510 203 509 206 509 b 219 512 208 510 213 511 b 234 514 224 512 231 513 b 305 524 252 517 282 522 b 489 538 389 532 479 539 b 438 485 495 537 492 534 b 266 333 406 456 329 387 b -74 29 136 218 47 139 b -201 -92 -179 -66 -202 -88 b -151 -150 -200 -94 -178 -120 z "},"":{"ha":1317,"x_min":0,"x_max":0,"o":"m 1312 490 b 1292 536 1307 509 1295 536 b 1289 540 1291 536 1289 538 b 1286 545 1289 542 1288 544 b 1282 549 1284 546 1282 548 b 1252 579 1282 552 1255 579 b 1249 581 1251 579 1249 580 b 1246 582 1249 582 1248 583 b 1242 583 1244 581 1242 582 b 1224 595 1242 585 1229 594 b 1213 599 1224 595 1219 597 b 1199 604 1208 602 1202 604 b 1193 607 1197 605 1194 606 b 1095 621 1187 610 1130 619 b 1002 625 1076 622 1034 624 b 949 631 947 627 943 627 b 1063 713 961 639 1048 702 b 1132 781 1081 727 1132 777 b 1138 790 1132 782 1135 786 b 1150 809 1141 794 1147 802 b 1157 821 1153 815 1156 821 b 1164 843 1158 822 1161 832 b 1166 926 1171 868 1172 906 b 1144 974 1161 943 1147 974 b 1142 978 1143 974 1142 976 b 1092 1025 1142 984 1113 1011 b 964 1075 1060 1046 1025 1060 b 644 1109 853 1103 760 1113 b 319 1048 538 1105 433 1085 b 214 1007 280 1035 221 1012 b 180 988 213 1006 198 997 b 130 959 148 972 138 966 b 93 922 119 950 93 924 b 91 919 93 920 92 919 b 82 899 87 919 82 906 b 78 882 83 895 81 888 b 71 865 75 876 72 869 b 69 856 71 861 70 857 b 66 833 68 854 67 844 b 71 794 66 818 67 808 b 78 774 74 784 77 775 b 85 760 79 773 82 767 b 92 747 89 753 92 747 b 143 749 92 746 115 747 b 207 749 184 751 196 751 b 231 749 218 746 222 746 b 248 755 237 752 245 754 l 255 756 l 254 789 l 253 821 l 267 832 b 350 876 284 846 316 863 b 377 886 364 882 377 886 b 377 881 378 886 378 884 b 340 613 375 871 359 757 b 320 472 329 536 321 473 b 219 421 320 472 274 449 b 115 368 164 394 117 370 b 147 291 110 365 112 360 b 186 218 167 251 184 218 b 240 244 187 218 212 230 l 292 270 l 289 247 b 275 118 277 157 273 120 b 344 106 276 116 308 111 b 412 95 381 101 411 96 b 122 -28 414 94 346 65 b -65 -110 -40 -94 -65 -105 b -35 -186 -65 -112 -51 -146 b -5 -259 -18 -226 -5 -259 b 111 -215 -5 -262 12 -255 b 866 111 499 -55 646 8 b 1126 248 1001 175 1022 186 b 1281 362 1222 305 1247 323 b 1291 377 1286 367 1290 374 b 1296 384 1292 380 1294 384 b 1299 390 1298 385 1299 387 b 1302 393 1299 392 1300 393 b 1307 405 1303 393 1305 399 b 1312 420 1309 412 1311 418 b 1312 490 1317 429 1317 469 z m 507 592 b 521 692 508 596 514 642 b 543 799 537 807 535 799 l 549 799 l 549 841 b 557 929 549 878 553 922 b 695 938 560 934 624 938 b 861 922 773 938 800 935 b 978 882 909 913 972 891 b 908 812 980 878 937 835 b 641 643 854 770 757 708 b 518 587 578 608 537 589 b 512 585 516 587 513 586 b 507 592 508 581 506 584 z m 1090 432 b 989 365 1069 415 1031 390 b 549 152 926 326 729 232 b 441 109 443 106 441 105 b 475 355 441 113 473 342 b 485 367 476 360 479 364 b 502 365 493 370 494 370 b 540 361 512 360 535 357 b 549 362 542 363 546 363 b 555 365 552 362 554 362 b 564 368 556 367 560 368 b 571 371 568 368 571 369 b 577 373 571 372 574 373 b 586 401 584 373 586 380 b 595 417 586 413 586 414 b 753 447 617 426 692 440 b 1087 446 864 459 1011 458 l 1104 443 l 1090 432 z "}}}
